<!-- <svg version="1.1" xmlns="http://www.w3.org/2000/svg" width="1080" height="1080">
<path d="M0 0 C9.94354854 5.99513785 17.67434799 15.0642824 20.94140625 26.265625 C22.56494717 33.8421493 20.9494026 39.93611582 17.2265625 46.55859375 C13.02002335 52.91011037 7.19469219 56.32354283 -0.1875 58.06640625 C-8.89649781 59.46834248 -17.11523175 57.30694637 -25.58984375 55.453125 C-25.64519287 56.13938965 -25.70054199 56.8256543 -25.75756836 57.53271484 C-26.00989678 60.63154935 -26.26854024 63.72982484 -26.52734375 66.828125 C-26.61435547 67.90835938 -26.70136719 68.98859375 -26.79101562 70.1015625 C-26.87802734 71.1328125 -26.96503906 72.1640625 -27.0546875 73.2265625 C-27.13323975 74.17966309 -27.21179199 75.13276367 -27.29272461 76.11474609 C-27.58984375 78.453125 -27.58984375 78.453125 -28.58984375 80.453125 C-27.25179687 79.69515625 -27.25179687 79.69515625 -25.88671875 78.921875 C-24.70467268 78.26518274 -23.52236728 77.60895711 -22.33984375 76.953125 C-21.75332031 76.61925781 -21.16679688 76.28539062 -20.5625 75.94140625 C-17.20402268 74.09235694 -15.52338591 73.453125 -11.58984375 73.453125 C-9.30982105 75.30984003 -7.32219208 77.1170401 -5.27734375 79.203125 C-4.43333008 80.01136719 -4.43333008 80.01136719 -3.57226562 80.8359375 C-1.9765625 82.4375 -1.9765625 82.4375 0.41015625 85.453125 C0.23486328 87.50292969 0.23486328 87.50292969 -0.58984375 89.453125 C-2.71781398 91.13419188 -4.73000583 92.54636005 -7.02734375 93.953125 C-7.65825928 94.34822266 -8.2891748 94.74332031 -8.93920898 95.15039062 C-15.55466901 99.1997472 -21.96859876 101.928876 -29.58984375 103.453125 C-30.24984375 112.033125 -30.90984375 120.613125 -31.58984375 129.453125 C-36.34420953 127.07594211 -39.53246201 124.10216572 -43.33984375 120.453125 C-44.03722656 119.83050781 -44.73460937 119.20789063 -45.453125 118.56640625 C-48.36581262 115.75631819 -50.36681047 113.80291085 -51.04101562 109.72265625 C-51.04275581 107.25506838 -50.91665958 104.89735682 -50.58984375 102.453125 C-51.37359375 102.39125 -52.15734375 102.329375 -52.96484375 102.265625 C-65.44829473 99.46761012 -76.0737539 90.52370291 -83.58984375 80.453125 C-88.82227045 71.74106962 -91.01422 63.25452521 -89.1640625 53.12109375 C-86.61042068 44.17551413 -80.77527123 37.43677247 -72.88671875 32.671875 C-64.04230774 27.97892222 -54.00593236 26.89184319 -44.140625 28.96875 C-43.62886719 29.12859375 -43.11710938 29.2884375 -42.58984375 29.453125 C-42.491875 28.84726563 -42.39390625 28.24140625 -42.29296875 27.6171875 C-40.54907991 17.84539658 -38.01220986 8.0873029 -29.59765625 2.015625 C-20.50761865 -3.84461902 -9.96461958 -4.6015479 0 0 Z M-16.58984375 20.453125 C-20.12966704 23.86184373 -21.32693819 28.81351449 -22.58984375 33.453125 C-22.58984375 34.113125 -22.58984375 34.773125 -22.58984375 35.453125 C-13.01059875 38.58943198 -13.01059875 38.58943198 -3.58984375 36.453125 C-1.04653137 34.91026869 -1.04653137 34.91026869 0.41015625 32.453125 C1.1667328 27.91366571 0.78318661 26.0346135 -1.71484375 22.140625 C-6.97431793 17.22416001 -10.48463861 16.38298824 -16.58984375 20.453125 Z M-64.02734375 54.765625 C-65.84415048 57.89053257 -66.51738358 59.83011626 -66.58984375 63.453125 C-64.46133501 70.0751522 -60.96525319 75.22028388 -54.96484375 78.828125 C-51.76364808 80.67003281 -51.76364808 80.67003281 -48.58984375 80.453125 C-47.30222181 70.1271471 -46.21558785 59.8437705 -45.58984375 49.453125 C-52.7424584 49.06994922 -58.65366162 49.66751631 -64.02734375 54.765625 Z " fill="#000000" transform="translate(877.58984375,181.546875)"/>
<path d="M0 0 C0.91313965 0.00757324 1.8262793 0.01514648 2.76708984 0.02294922 C18.28330192 0.39739365 32.02271433 6.03628621 43.328125 16.765625 C54.9647298 29.60342772 60.51012862 45.07305642 59.75 62.4375 C58.09599821 79.86906525 51.36596263 93.81648271 38.7578125 106.0390625 C24.57412809 117.34916929 8.41851913 119.82667977 -9.25 118.4375 C-23.79392241 116.42780672 -35.91766667 108.50298095 -45.25 97.4375 C-52.49253029 87.82241668 -55.71144111 76.36657939 -56.25 64.4375 C-53.41684025 64.63148211 -50.59264251 64.85759296 -47.765625 65.12890625 C-45.42710678 65.33417618 -43.08111882 65.46737141 -40.734375 65.52734375 C-37.22221046 65.755875 -34.49709466 66.06285092 -31.25 67.4375 C-29.32698218 70.31533409 -28.38442071 73.03303822 -27.33203125 76.32421875 C-24.97263493 83.11280672 -20.37375615 87.10670555 -14.125 90.375 C-5.89503821 94.25333663 2.7361651 94.68262134 11.375 91.875 C19.75812847 88.50043557 25.94780198 82.64679118 29.75 74.4375 C33.67612897 63.89394398 34.16805896 53.89079422 29.75 43.4375 C25.60374744 35.4420784 19.93870255 29.85862975 11.5 26.5625 C2.14021839 23.8721669 -6.72925239 24.79537227 -15.25 29.4375 C-21.21514669 33.45250258 -22.91170586 36.93005879 -27.25 43.4375 C-35.5 42.1175 -43.75 40.7975 -52.25 39.4375 C-49.69708098 26.67290488 -40.72645527 16.0414529 -30.20703125 8.67578125 C-20.81047733 2.73025711 -11.12542223 -0.13088732 0 0 Z " fill="#000000" transform="translate(470.25,904.5625)"/>
<path d="M0 0 C0.60070312 0.39832031 1.20140625 0.79664063 1.8203125 1.20703125 C7.80950978 5.70541102 11.99090163 12.39266927 13.59375 19.7109375 C13.83079427 21.79824401 13.93116082 23.90040489 14 26 C11.50056796 26.48229332 9.00051757 26.96089426 6.5 27.4375 C5.80390625 27.57220703 5.1078125 27.70691406 4.390625 27.84570312 C-0.39302198 28.75371019 -5.1631341 29.43896713 -10 30 C-14 23.25 -14 23.25 -14 21 C-20.60140195 18.22046234 -27.54610262 17.97185885 -34.375 20.125 C-38.33349704 21.83873957 -40.26828321 23.98556562 -42 28 C-41.50390907 31.61437676 -40.77018644 33.30434773 -38.0625 35.75 C-32.22526273 38.13254582 -26.09191167 38.82829045 -19.84375 39.390625 C9.10258104 42.03476101 9.10258104 42.03476101 17 51 C24.13620762 60.81019642 26.02828702 69.96376866 25 82 C23.10303497 91.32874576 18.19329259 97.96077243 10.75 103.75 C-3.02463399 112.8122592 -20.61600177 114.40912752 -36.57421875 111.3046875 C-45.81231636 108.23820601 -53.02911331 102.33873596 -58 94 C-60.48378579 88.94757859 -62.26289558 84.69270054 -62 79 C-59.14694871 78.49279088 -56.29283186 77.99406366 -53.4375 77.5 C-52.63763672 77.35691406 -51.83777344 77.21382813 -51.01367188 77.06640625 C-46.32129427 76.26199866 -41.76557696 75.48529347 -37 76 C-35.3984375 77.64453125 -35.3984375 77.64453125 -34.375 79.8125 C-31.79310076 84.61958871 -29.16426701 86.27857766 -24 88 C-16.89311441 88.56855085 -10.84825742 86.95817698 -5 82.9375 C-2.10731711 80.13521345 -2.02262295 79.28052458 -1.6875 75.125 C-1.74134884 72.15254378 -1.8803085 71.18193108 -3.5625 68.625 C-11.00856248 63.66095834 -21.06952584 64.07028944 -29.68945312 63.3203125 C-40.89319431 62.21314886 -53.28909097 59.85145162 -61.4921875 51.4765625 C-67.95345773 43.33306807 -69.08964325 33.06681771 -68 23 C-65.76347812 13.56134517 -60.23547163 6.81321732 -52.125 1.6875 C-37.24312861 -6.54549931 -14.83372048 -10.28790292 0 0 Z " fill="#000000" transform="translate(495,56)"/>
<path d="M0 0 C8.26663399 7.59261587 14.75768277 18.63118917 15.48828125 29.9375 C15.87220956 44.74026056 12.60575404 57.06040771 2.37109375 68.31640625 C-4.12313153 74.39080282 -11.8013059 78.66638952 -20.75 79.25 C-20.234375 80.1575 -19.71875 81.065 -19.1875 82 C-17.75 85.25 -17.75 85.25 -17.875 87.09375 C-19.14244912 90.21710676 -21.14318238 92.43348338 -23.3125 95 C-24.13878906 95.98484375 -24.96507812 96.9696875 -25.81640625 97.984375 C-26.45449219 98.73203125 -27.09257813 99.4796875 -27.75 100.25 C-31.99963589 99.74045133 -34.60645412 97.09672944 -37.6875 94.375 C-38.8501266 93.3696369 -40.01289092 92.36443304 -41.17578125 91.359375 C-42.06450928 90.5849707 -42.06450928 90.5849707 -42.97119141 89.79492188 C-45.75151935 87.38016546 -48.56246308 85.00208269 -51.375 82.625 C-51.91640625 82.16617432 -52.4578125 81.70734863 -53.015625 81.23461914 C-56.37736526 78.39080965 -59.77009906 75.58945099 -63.1875 72.8125 C-68.59138157 68.41253257 -73.87490939 63.88122816 -79.15625 59.3359375 C-84.65674241 54.6044284 -90.20499577 49.92917301 -95.75 45.25 C-95.20857492 41.16556519 -93.06459905 39.07525018 -90.3125 36.125 C-89.50941406 35.25617187 -88.70632813 34.38734375 -87.87890625 33.4921875 C-86.52021327 32.06119709 -85.14531003 30.64531003 -83.75 29.25 C-81.44 30.24 -79.13 31.23 -76.75 32.25 C-76.8325 31.156875 -76.915 30.06375 -77 28.9375 C-76.96172412 18.10542726 -70.70293317 8.43922012 -63.6875 0.625 C-45.36555725 -16.80318944 -19.04595704 -15.00719383 0 0 Z M-50.75 22.25 C-55.32750185 28.48048863 -56.59689023 33.60344041 -55.75 41.25 C-53.87178048 48.41594581 -49.89212214 53.2134366 -43.75 57.25 C-37.58734808 60.47012443 -31.45906333 61.11714498 -24.75 59.25 C-17.73048 56.06857239 -13.22016433 51.06639421 -9.75 44.25 C-7.72257586 37.63288564 -8.66279481 31.93478378 -11.35546875 25.68359375 C-14.92615239 19.45240073 -20.92373386 15.25080215 -27.75 13.25 C-37.42951715 11.97847065 -44.39639336 14.83745892 -50.75 22.25 Z " fill="#000000" transform="translate(894.75,768.75)"/>
<path d="M0 0 C0.99 -1.98 1.98 -3.96 3 -6 C5.7920301 -5.8595017 8.58349796 -5.71284617 11.375 -5.5625 C12.56609375 -5.50352539 12.56609375 -5.50352539 13.78125 -5.44335938 C19.7734375 -5.11328125 19.7734375 -5.11328125 22 -4 C20.09308097 17.85139128 18.16797882 39.7014433 16.0723877 61.53567505 C15.89905754 63.34597374 15.72726507 65.15642031 15.55700684 66.9670105 C15.31981027 69.48366833 15.07681717 71.99969557 14.83203125 74.515625 C14.76238663 75.26451492 14.692742 76.01340485 14.62098694 76.7849884 C14.11452229 81.88547771 14.11452229 81.88547771 13 83 C10.17301765 82.93514743 7.38209223 82.80823914 4.5625 82.625 C3.77294922 82.58117187 2.98339844 82.53734375 2.16992188 82.4921875 C-3.7412992 82.1293504 -3.7412992 82.1293504 -6 81 C-6.72693904 79.02111039 -7.39816251 77.02045442 -8 75 C-8.74765625 75.34933594 -9.4953125 75.69867188 -10.265625 76.05859375 C-11.25046875 76.51363281 -12.2353125 76.96867187 -13.25 77.4375 C-14.22453125 77.88996094 -15.1990625 78.34242188 -16.203125 78.80859375 C-26.3706044 83.13971277 -38.84298615 81.86966993 -49.03515625 78.25390625 C-60.75783207 73.29609474 -68.45626425 66.05237425 -73.9921875 54.5546875 C-78.76591782 42.45383622 -78.76117402 28.09503543 -74.3203125 15.859375 C-68.45764076 3.16270128 -58.79966887 -5.2001284 -45.9375 -10.1875 C-28.85221341 -14.91321757 -13.81248409 -10.5237974 0 0 Z M-48.7734375 21.12109375 C-53.0070331 27.60631504 -52.66216839 34.50391426 -52 42 C-50.51098409 47.9843361 -47.01883824 51.41740355 -42 54.8125 C-36.25361743 58.22441465 -30.55448339 58.78100179 -24 58 C-17.35876193 56.21976443 -12.60074179 52.87428709 -9 47 C-5.66953545 39.87230125 -4.94636391 33.52471435 -7.5 26 C-10.12532881 19.8711185 -14.4033233 15.7745193 -20.359375 12.8359375 C-31.65243022 9.26091706 -41.42904412 12.2791006 -48.7734375 21.12109375 Z " fill="#000000" transform="translate(607,84)"/>
<path d="M0 0 C1.53051758 2.64526367 1.53051758 2.64526367 3.14453125 6.16796875 C3.43680099 6.79923172 3.72907074 7.43049469 4.03019714 8.08088684 C4.96743877 10.11207866 5.88987853 12.1496324 6.8125 14.1875 C7.42161279 15.51018657 8.03163 16.83245704 8.64257812 18.15429688 C25.06591369 53.82292837 25.06591369 53.82292837 19.5 70.9375 C15.21571097 80.79436078 8.58794018 87.34476216 -1 92 C-1.65742187 92.32742188 -2.31484375 92.65484375 -2.9921875 92.9921875 C-12.80623277 97.26801635 -23.10725406 96.52626312 -33 93 C-45.88019288 87.60781815 -51.55750353 78.0056607 -57.13134766 65.85839844 C-57.95513039 64.09599424 -58.84123049 62.36311359 -59.73046875 60.6328125 C-61 58 -61 58 -61 56 C-69.83384053 59.81909794 -78.62970636 63.68754929 -87.30102539 67.86547852 C-91.78664959 70 -91.78664959 70 -94 70 C-95.70353355 66.57021912 -97.38500046 63.13007937 -99.0625 59.6875 C-99.54783203 58.71103516 -100.03316406 57.73457031 -100.53320312 56.72851562 C-100.98759766 55.79072266 -101.44199219 54.85292969 -101.91015625 53.88671875 C-102.33433838 53.02264404 -102.75852051 52.15856934 -103.19555664 51.26831055 C-104 49 -104 49 -103 46 C-100.53998797 44.60802845 -98.13763664 43.39837666 -95.57421875 42.2265625 C-94.80856094 41.86673279 -94.04290314 41.50690308 -93.25404358 41.13616943 C-90.73634549 39.95590701 -88.21208006 38.79045974 -85.6875 37.625 C-83.93675352 36.80770453 -82.18643067 35.989501 -80.43652344 35.17041016 C-76.08397752 33.13602377 -71.72611466 31.1133616 -67.36590576 29.09545898 C-64.05571075 27.56277627 -60.74859651 26.02353056 -57.44140625 24.484375 C-54.12152786 22.94011267 -50.80063018 21.39834455 -47.47558594 19.86523438 C-40.89969433 16.83080066 -34.35417716 13.74116746 -27.82421875 10.609375 C-25.46833794 9.48405256 -23.11209365 8.35949477 -20.7557373 7.23516846 C-19.21942924 6.49945398 -17.68481344 5.76019446 -16.15197754 5.01727295 C-14.02076148 3.98451761 -11.88415464 2.96380353 -9.74609375 1.9453125 C-9.10685471 1.63148621 -8.46761566 1.31765991 -7.80900574 0.99432373 C-3.34128839 -1.1137628 -3.34128839 -1.1137628 0 0 Z M-13 32 C-16.83791265 33.38930923 -20.50599185 35.16275548 -24.2043457 36.88671875 C-26.05280113 37.74549399 -27.90943035 38.58431668 -29.76757812 39.421875 C-30.92837891 39.958125 -32.08917969 40.494375 -33.28515625 41.046875 C-34.89209351 41.78695801 -34.89209351 41.78695801 -36.53149414 42.54199219 C-39.30270016 43.81473268 -39.30270016 43.81473268 -40 47 C-38.88687114 49.72687124 -37.7156829 52.26419647 -36.375 54.875 C-36.03082031 55.58269531 -35.68664062 56.29039062 -35.33203125 57.01953125 C-32.77535668 62.08570927 -29.84949692 65.9365712 -25.1875 69.3125 C-21.07592183 70.60471028 -17.09956505 70.78468593 -13.06640625 69.27734375 C-8.06222808 66.6192104 -4.79109688 63.37329064 -3 58 C-2.37439894 51.63170205 -4.23876371 47.25322764 -6.875 41.625 C-7.23980469 40.80644531 -7.60460937 39.98789062 -7.98046875 39.14453125 C-9.65410123 34.82194678 -9.65410123 34.82194678 -13 32 Z " fill="#000000" transform="translate(968,296)"/>
<path d="M0 0 C3.8467988 0.61340259 6.92159805 1.76541926 10.41015625 3.484375 C11.46734863 4.00040283 12.52454102 4.51643066 13.61376953 5.0480957 C14.75185059 5.60972412 15.88993164 6.17135254 17.0625 6.75 C19.51782685 7.95012518 21.97553228 9.1453312 24.43359375 10.33984375 C25.06305908 10.64621262 25.69252441 10.95258148 26.34106445 11.26823425 C32.7290846 14.36974797 39.17386361 17.34482883 45.625 20.3125 C57.61616383 25.84151292 69.50685682 31.56234338 81.37158203 37.35668945 C90.20424017 41.66715135 99.0803714 45.87244805 108 50 C107.42022443 53.47598164 106.53478895 56.29104698 104.93359375 59.42578125 C104.3293457 60.61977539 104.3293457 60.61977539 103.71289062 61.83789062 C103.29201172 62.65451172 102.87113281 63.47113281 102.4375 64.3125 C101.80038086 65.56643555 101.80038086 65.56643555 101.15039062 66.84570312 C100.1056521 68.89996426 99.05540238 70.95120292 98 73 C86.25147545 67.83339739 74.58879975 62.5156819 63 57 C63.33 57.66 63.66 58.32 64 59 C64.93646337 71.14332015 63.55478004 81.56379013 55.62109375 91.21875 C49.52759862 97.91425308 43.88760052 101.12692388 34.78125 102.28125 C22.06465978 102.83414523 10.82726856 96.84902554 -0.1875 91.3125 C-1.65435631 90.58523133 -3.12180813 89.85916255 -4.58984375 89.13427734 C-6.75543132 88.06482459 -8.92062572 86.99467634 -11.08358765 85.91992188 C-17.18053673 82.89288287 -23.33271887 79.99432752 -29.54370117 77.20825195 C-33.89311964 75.21376072 -33.89311964 75.21376072 -35 73 C-34.19555664 70.84521484 -34.19555664 70.84521484 -32.91015625 68.2109375 C-32.45576172 67.26992188 -32.00136719 66.32890625 -31.53320312 65.359375 C-31.04787109 64.37453125 -30.56253906 63.3896875 -30.0625 62.375 C-29.58103516 61.38242187 -29.09957031 60.38984375 -28.60351562 59.3671875 C-27.40935889 56.90793402 -26.2079369 54.45250665 -25 52 C-19.87541563 53.55791024 -15.19177301 55.70708544 -10.3828125 58.02734375 C-9.15883255 58.61171959 -9.15883255 58.61171959 -7.91012573 59.207901 C-5.31348115 60.4477832 -2.7190019 61.69209938 -0.125 62.9375 C3.2872375 64.57546318 6.70158106 66.20891954 10.1171875 67.83984375 C10.8882785 68.21181381 11.65936951 68.58378387 12.4538269 68.96702576 C21.70625322 73.66783047 21.70625322 73.66783047 31.75 75.25 C32.82507813 75.22679687 32.82507813 75.22679687 33.921875 75.203125 C37.02928261 74.90131709 37.02928261 74.90131709 40 74 C41.22189414 72.19767498 41.22189414 72.19767498 42 70 C42.30421875 69.32582031 42.6084375 68.65164063 42.921875 67.95703125 C45.17466607 62.1231525 45.43407149 57.82247056 43 52 C39.27543995 44.53503071 31.09542832 41.71122228 23.94189453 38.3828125 C20.29933189 36.67065691 16.67868827 34.91530505 13.05859375 33.15625 C11.63924449 32.4667908 10.21989225 31.77733773 8.80053711 31.08789062 C8.09154266 30.74346924 7.38254822 30.39904785 6.65206909 30.04418945 C3.17665349 28.35790887 -0.30213775 26.6786374 -3.78125 25 C-4.40862564 24.69727173 -5.03600128 24.39454346 -5.68238831 24.0826416 C-7.12153405 23.38830719 -8.56075738 22.69413359 -10 22 C-9.22755923 20.11884608 -8.45224946 18.23887012 -7.67578125 16.359375 C-7.24434814 15.31233398 -6.81291504 14.26529297 -6.3684082 13.18652344 C-4.43792165 8.6911246 -2.25605846 4.33931244 0 0 Z " fill="#000000" transform="translate(896,662)"/>
<path d="M0 0 C8.41765245 6.95309467 14.94748201 16.35133365 16.625 27.28515625 C17.71851488 40.32532114 15.90395689 52.10675817 8.625 63.28515625 C4.44262281 61.9808072 0.62602518 60.39876745 -3.27734375 58.4140625 C-4.40479004 57.84453857 -5.53223633 57.27501465 -6.69384766 56.68823242 C-7.28450012 56.38774994 -7.87515259 56.08726746 -8.48370361 55.77767944 C-11.59514131 54.19537688 -14.71341466 52.62668864 -17.83203125 51.05859375 C-18.46208069 50.74160019 -19.09213013 50.42460663 -19.74127197 50.0980072 C-28.58853368 45.65783689 -37.53278852 41.41847087 -46.48095703 37.1862793 C-47.78530539 36.56571346 -49.08304749 35.9311325 -50.375 35.28515625 C-51.78639289 41.31565314 -51.08085903 45.6944514 -48.375 51.28515625 C-44.94349215 55.69709491 -40.68244391 58.58050847 -35.375 60.28515625 C-29.8066349 60.97271353 -25.52552247 60.49252302 -20.375 58.28515625 C-16.74349225 58.74726571 -13.93942583 59.84577094 -10.73046875 61.5703125 C-9.88935547 62.01826172 -9.04824219 62.46621094 -8.18164062 62.92773438 C-7.31732422 63.39630859 -6.45300781 63.86488281 -5.5625 64.34765625 C-4.67884766 64.82009766 -3.79519531 65.29253906 -2.88476562 65.77929688 C-0.71168422 66.94218909 1.45802284 68.11094 3.625 69.28515625 C0.70115923 72.30100599 -2.14513437 75.05158066 -5.625 77.41015625 C-6.31078125 77.88710937 -6.9965625 78.3640625 -7.703125 78.85546875 C-14.50859411 82.4969917 -21.01435297 83.82284024 -28.6875 83.72265625 C-29.51564209 83.71435791 -30.34378418 83.70605957 -31.19702148 83.69750977 C-43.77553913 83.35317821 -53.48258975 78.80205733 -62.59765625 70.18359375 C-72.0461508 60.18761633 -75.91494777 49.01552929 -75.62109375 35.39453125 C-74.59656521 22.44969449 -69.09403542 10.05825502 -59.375 1.28515625 C-41.04832899 -12.35010646 -18.93290309 -13.67030338 0 0 Z M-42.375 19.28515625 C-30.52890409 25.64073677 -18.59616488 31.68313701 -6.375 37.28515625 C-5.89078116 30.60024613 -5.95822119 25.56721044 -10.375 20.28515625 C-15.50390854 15.02255578 -19.86716523 12.25046725 -27.3125 11.97265625 C-34.06143072 12.12307818 -37.75814539 14.53077831 -42.375 19.28515625 Z " fill="#000000" transform="translate(755.375,123.71484375)"/>
<path d="M0 0 C10.66656874 8.08431397 18.44418738 18.69162658 21 32 C22.5311826 46.47419875 20.16885817 58.40032827 11 70 C4.13228103 78.37676933 -6.02586786 84.86660603 -17 86 C-31.42888287 86.83888854 -42.27436129 85.0183698 -54 76 C-61.36002534 69.37724835 -66.73031955 60.67872262 -69 51 C-49.4090791 42.15411065 -29.74477927 33.49687521 -10 25 C-10.75539063 24.04867187 -11.51078125 23.09734375 -12.2890625 22.1171875 C-12.71396973 21.58206543 -13.13887695 21.04694336 -13.57666016 20.49560547 C-16.82431475 17.08306138 -20.84970901 16.1491118 -25.375 15.5625 C-31.85774944 16.34490079 -38.53260824 19.16032559 -43 24 C-43.33257813 25.17949219 -43.33257813 25.17949219 -43.671875 26.3828125 C-44.97058029 30.78125778 -46.20228292 33.88889739 -50.24365234 36.38671875 C-65.52882148 44 -65.52882148 44 -71 44 C-71.83737993 31.09039273 -69.00303154 20.24388037 -61 10 C-60.38382813 9.16597656 -59.76765625 8.33195313 -59.1328125 7.47265625 C-44.92238779 -9.0020669 -17.81640981 -11.75197801 0 0 Z M-11.6328125 44.28125 C-12.76056595 44.78066101 -12.76056595 44.78066101 -13.91110229 45.29016113 C-16.3172824 46.35665888 -18.7211487 47.42826498 -21.125 48.5 C-22.75375668 49.22299328 -24.38266111 49.94565383 -26.01171875 50.66796875 C-30.0095385 52.4414529 -34.00529023 54.21952244 -38 56 C-38 56.99 -38 57.98 -38 59 C-36.6066833 60.43071939 -36.6066833 60.43071939 -34.75 61.625 C-34.14671875 62.05039062 -33.5434375 62.47578125 -32.921875 62.9140625 C-28.7773627 65.25588043 -24.69465356 65.38480767 -20 65 C-14.13986871 63.06002515 -8.05539808 60.47524543 -4.8125 54.9921875 C-2.43970671 50.13125681 -1.5420147 46.3813273 -2 41 C-5.45998589 41 -8.51461516 42.88621176 -11.6328125 44.28125 Z " fill="#000000" transform="translate(734,881)"/>
<path d="M0 0 C1.38969302 1.02198227 2.76580436 2.06279396 4.125 3.125 C4.73859375 3.56457031 5.3521875 4.00414062 5.984375 4.45703125 C14.58494841 11.05968384 19.67272174 21.1679796 21.58984375 31.671875 C23.36086024 45.44202571 19.65623466 57.66764628 12.125 69.125 C3.09989539 80.32069938 -7.96439411 86.91677854 -22.3671875 88.51171875 C-35.69447106 88.94210987 -47.90315058 84.88984405 -58.09375 76.2421875 C-67.87963597 66.93099003 -72.93523127 55.74266617 -73.375 42.125 C-72.91472206 28.31666181 -67.20819256 16.10140969 -57.90625 6.00390625 C-41.98600295 -8.72232227 -18.53429083 -11.897011 0 0 Z M-42.875 25.125 C-43.596875 25.95 -44.31875 26.775 -45.0625 27.625 C-49.08896044 33.17873853 -49.70656045 38.39038698 -48.875 45.125 C-46.40143644 52.82647357 -40.95981094 58.05459109 -34.10546875 62.10546875 C-28.25680693 64.77885007 -22.7244357 64.73950849 -16.6875 62.6875 C-9.92438005 59.58241977 -5.56743825 54.59366448 -2.875 47.6875 C-1.35992538 42.17641606 -1.4909478 37.24769628 -3.8203125 31.9921875 C-8.03898087 24.64444061 -13.57767181 19.91292422 -21.75 17.59375 C-30.32093098 15.70310346 -37.25831436 18.57220009 -42.875 25.125 Z " fill="#000000" transform="translate(227.875,246.875)"/>
<path d="M0 0 C9.76176482 7.35301766 17.03229682 16.70592062 19 29 C20.33315437 45.65620027 17.0678746 58.29199008 6.12109375 71.21875 C-2.51895032 80.57443408 -13.72292661 84.31359267 -26.2109375 85.0234375 C-40.62323875 84.93428924 -53.4839195 79.33757741 -63.8125 69.40625 C-72.57261588 59.77012253 -76.85243381 47.23892082 -76.3828125 34.26171875 C-75.23117733 24.44931702 -71.59235755 16.06476825 -66 8 C-65.278125 6.948125 -64.55625 5.89625 -63.8125 4.8125 C-46.07984898 -12.92015102 -20.26858866 -13.24253011 0 0 Z M-46.55859375 23.9375 C-51.04480831 30.35679889 -51.96086769 36.34619183 -51 44 C-49.13988093 50.70344798 -44.56984202 55.07282623 -39 59 C-33.46308295 61.76845852 -26.7294042 62.10037191 -20.7890625 60.34765625 C-14.4875989 57.53493399 -10.90436053 52.8893746 -7.1875 47.25 C-4.75745666 40.59935506 -3.85189735 33.42979507 -6.875 26.84375 C-11.47112159 19.31121739 -17.59583474 16.16180202 -26 14 C-34.50778174 12.63875492 -41.48431624 17.53284347 -46.55859375 23.9375 Z " fill="#000000" transform="translate(394,881)"/>
<path d="M0 0 C4.8281901 1.51277251 7.97238297 4.27653578 11.6875 7.5625 C15.58605233 11.14919703 15.58605233 11.14919703 20 14 C18.68634784 16.82338336 17.22203388 19.13934873 15.2421875 21.5390625 C14.70311768 22.19672607 14.16404785 22.85438965 13.60864258 23.53198242 C13.03654053 24.22267822 12.46443848 24.91337402 11.875 25.625 C10.6885747 27.0714281 9.50237603 28.51804213 8.31640625 29.96484375 C7.74293457 30.66206543 7.16946289 31.35928711 6.57861328 32.07763672 C3.34287931 36.01796603 0.15908064 39.99808164 -3 44 C-3.41411133 44.52223145 -3.82822266 45.04446289 -4.25488281 45.58251953 C-5.61353866 47.30029797 -6.96386677 49.02434527 -8.3125 50.75 C-8.73362061 51.28133545 -9.15474121 51.8126709 -9.58862305 52.36010742 C-14.00530698 58.05064662 -16.8012138 62.6555402 -16 70 C-14.06033962 74.79210212 -10.50287214 77.65850649 -6 80 C-0.9123879 81.66873677 3.13872272 81.01275548 8.04296875 79.08203125 C13.1111959 76.27983779 16.49927533 72.37329143 19.9375 67.8125 C24.86268848 61.40287863 29.95642788 55.15240007 35.14038086 48.95043945 C38.62740141 44.75446671 41.88230803 40.47803322 45 36 C49.16932012 37.96742283 52.52477153 40.59072141 56.125 43.4375 C56.75792969 43.92798828 57.39085937 44.41847656 58.04296875 44.92382812 C58.65011719 45.40142578 59.25726563 45.87902344 59.8828125 46.37109375 C60.43340332 46.80349365 60.98399414 47.23589355 61.55126953 47.68139648 C63 49 63 49 65 52 C58.09392655 60.857489 51.08479824 69.62255704 43.98828125 78.328125 C41.01813955 81.97258413 38.08100543 85.64245829 35.15234375 89.3203125 C33.42572096 91.46997354 31.68783272 93.60866924 29.94140625 95.7421875 C23.43517019 103.69604921 17.07555455 111.71087131 11 120 C7.47761953 118.43632643 4.72876006 116.30504111 1.75 113.875 C0.85796875 113.15054688 -0.0340625 112.42609375 -0.953125 111.6796875 C-1.62859375 111.12539063 -2.3040625 110.57109375 -3 110 C-2.34 106.7 -1.68 103.4 -1 100 C-1.97839844 99.90203125 -2.95679688 99.8040625 -3.96484375 99.703125 C-18.11063765 98.08964212 -28.17015698 93.8713678 -37.67578125 83.00390625 C-42.82232898 75.21576765 -43.04746047 66.98303894 -42 58 C-39.7736814 47.51937734 -32.41635769 39.88787956 -25.65917969 31.96972656 C-23.19254695 29.04141684 -20.84521755 26.02575137 -18.5 23 C-12.44730017 15.24099593 -6.22525922 7.62074657 0 0 Z " fill="#000000" transform="translate(271,804)"/>
<path d="M0 0 C9.08959472 6.23181139 16.29496233 15.73260055 23.03515625 24.3359375 C25.10519821 26.96903087 27.22939076 29.55125268 29.36328125 32.1328125 C34.38521302 38.25027913 39.1937545 44.52436819 43.98828125 50.8203125 C40.89287039 53.94842136 37.76288139 57.00509054 34.48828125 59.9453125 C33.39 60.93917969 33.39 60.93917969 32.26953125 61.953125 C29.95487584 63.8476546 27.58717967 65.34699332 24.98828125 66.8203125 C19.95001825 61.42128499 15.19334515 55.90655191 10.67578125 50.0703125 C6.76941863 45.03040406 2.76175681 40.10081174 -1.38671875 35.2578125 C-1.87438721 34.68643555 -2.36205566 34.11505859 -2.86450195 33.52636719 C-10.16377135 24.56822945 -10.16377135 24.56822945 -20.44921875 20.3828125 C-25.87524924 21.04916712 -28.76764612 23.40812194 -32.32421875 27.4453125 C-35.66551993 32.14788453 -35.67406413 36.16244655 -35.01171875 41.8203125 C-32.67492911 49.58045349 -27.22682348 55.41295851 -21.98828125 61.37890625 C-18.94102114 64.85934549 -16.09306972 68.47599907 -13.26171875 72.1328125 C-9.34006124 77.17999611 -5.31576813 82.09026506 -1.01171875 86.8203125 C-2.58050448 91.38601995 -6.24848015 93.64637168 -9.94921875 96.4453125 C-10.58279297 96.93515625 -11.21636719 97.425 -11.86914062 97.9296875 C-14.53927321 99.98493151 -17.20599249 101.94982833 -20.01171875 103.8203125 C-24.67333399 98.77134241 -29.0548112 93.56151823 -33.26171875 88.1328125 C-37.59602521 82.54363848 -42.1056215 77.14351816 -46.73461914 71.796875 C-50.28420647 67.69054645 -53.71649396 63.50928994 -57.08203125 59.25 C-59.21724491 56.5615326 -61.39299561 53.90906353 -63.57421875 51.2578125 C-67.47091692 46.50871161 -71.27036947 41.69248761 -75.01171875 36.8203125 C-73.49500657 33.09594148 -71.32141541 31.01360333 -68.26171875 28.4453125 C-67.42125 27.71570313 -66.58078125 26.98609375 -65.71484375 26.234375 C-63.01171875 24.8203125 -63.01171875 24.8203125 -59.86328125 25.4921875 C-57.11212278 26.77354898 -54.55896925 28.17209159 -52.01171875 29.8203125 C-52.09421875 28.8715625 -52.17671875 27.9228125 -52.26171875 26.9453125 C-52.17178392 18.00579016 -47.42616738 11.33814034 -41.44921875 5.0859375 C-29.04472327 -6.44388201 -14.80912186 -8.68418408 0 0 Z " fill="#000000" transform="translate(290.01171875,168.1796875)"/>
<path d="M0 0 C9.70000928 7.4558671 17.06670669 16.64929147 19 29 C20.33285584 43.69753501 18.52403691 57.18820487 9 69 C0.78691365 78.29375561 -8.71026485 83.76598733 -21.125 84.75 C-23.08258048 84.84946136 -25.0408568 84.93858485 -27 85 C-26.35755277 81.56185817 -25.71046074 78.12460665 -25.0625 74.6875 C-24.78889648 73.22280273 -24.78889648 73.22280273 -24.50976562 71.72851562 C-24.33251953 70.79072266 -24.15527344 69.85292969 -23.97265625 68.88671875 C-23.81031494 68.02264404 -23.64797363 67.15856934 -23.48071289 66.26831055 C-23 64 -23 64 -22 61 C-19.85546875 59.7890625 -19.85546875 59.7890625 -17.1875 58.625 C-11.53128814 55.9177533 -9.21698128 53.2601081 -6.25 47.75 C-4.27305318 41.81915954 -4.27305318 37.18084046 -6.25 31.25 C-9.75505993 24.74060299 -13.69482198 20.61088401 -20.9296875 18.4140625 C-29.36824297 16.72635141 -35.84469649 18.27356098 -43 23 C-47.40127062 26.94985825 -49.08832281 32.2622885 -50 38 C-50.03693121 42.83060189 -49.3297748 46.55312174 -46.00390625 50.171875 C-44.88822266 51.23148438 -44.88822266 51.23148438 -43.75 52.3125 C-41.05732272 55.06350241 -40.03787459 56.20862035 -39.8515625 60.1015625 C-40.38085243 63.4747983 -41.12539734 66.7003627 -42 70 C-42.38607479 71.93532362 -42.76230998 73.87265794 -43.125 75.8125 C-43.41361796 77.2089669 -43.70401175 78.60507667 -44 80 C-47 81 -47 81 -49.26953125 79.9609375 C-61.86621205 72.10494302 -69.99611839 63.31392529 -73.58984375 48.58203125 C-75.77459668 34.82849137 -72.89873632 21.45316766 -65 10 C-49.00794067 -9.04239657 -21.14482799 -14.90171533 0 0 Z " fill="#000000" transform="translate(978,583)"/>
<path d="M0 0 C0.35018092 8.2681606 0.36371637 17.02125129 -2 25 C-3.94026338 26.82689968 -5.44696661 27.4444148 -7.96484375 28.2578125 C-12.11472897 29.77120634 -14.27940592 33.46746894 -16.109375 37.359375 C-18.0633841 43.15284057 -17.94793232 49.68008935 -15.5 55.3125 C-12.26226832 60.88414426 -7.34632631 64.09440037 -1.4375 66.375 C5.5005703 67.63646733 10.70839835 67.04299688 17 64 C18.35863401 63.03465478 19.70343137 62.04722851 21 61 C21.66 61 22.32 61 23 61 C23.28875 60.278125 23.5775 59.55625 23.875 58.8125 C24.5671972 57.08200699 25.28570087 55.36143723 26.046875 53.66015625 C27.83183648 48.67835802 27.95351922 43.00900976 26.34765625 37.94140625 C24.55605568 34.48892274 22.50997163 32.62827979 19.31640625 30.46484375 C17.01680413 28.52775231 16.10138976 27.61002321 15.60327148 24.61303711 C15.72506221 21.81597009 16.05711563 19.13920933 16.5 16.375 C16.61859375 15.43398438 16.7371875 14.49296875 16.859375 13.5234375 C17.37011729 9.61514864 17.98930422 5.81198572 19 2 C29.68828095 4.71079589 38.71995172 10.88431767 45 20 C52.13135906 32.46091197 53.3253793 45.21024004 50.31640625 59.171875 C46.93277438 70.78149191 39.63761736 80.38630101 29.31640625 86.62109375 C17.05482591 93.27009115 4.069775 94.73906972 -9.4609375 91.05859375 C-22.74890204 86.36599089 -31.74074112 78.15209799 -37.921875 65.625 C-42.83084127 53.6727343 -42.77110364 39.07355604 -38.39453125 26.93359375 C-32.46438728 14.45869705 -23.79861422 6.74354233 -11 2 C-7.38678887 0.96688926 -3.78263834 0 0 0 Z " fill="#000000" transform="translate(118,441)"/>
<path d="M0 0 C0.70174756 3.24709194 1.38388069 6.49800252 2.0625 9.75 C2.26166016 10.67039062 2.46082031 11.59078125 2.66601562 12.5390625 C2.84970703 13.42851562 3.03339844 14.31796875 3.22265625 15.234375 C3.39547119 16.05131836 3.56828613 16.86826172 3.74633789 17.70996094 C4.01336263 20.12063667 3.64227632 21.68805601 3 24 C2.40388916 24.11639832 1.80777832 24.23279663 1.19360352 24.35272217 C-5.03895076 25.57208982 -11.26811634 26.80776259 -17.49560547 28.05273438 C-19.81672406 28.51456485 -22.13866094 28.97230311 -24.46142578 29.42578125 C-27.80988155 30.08025867 -31.15506857 30.74964619 -34.5 31.421875 C-35.5305249 31.61996765 -36.5610498 31.8180603 -37.62280273 32.02215576 C-47.5995181 34.03831756 -47.5995181 34.03831756 -55.65625 39.89453125 C-57.9506363 45.11001122 -59.1977351 49.42698124 -57.3046875 55.07421875 C-55.18020694 59.90339515 -52.99488059 62.89689238 -48 65 C-35.6912446 66.5928377 -23.15305496 62.96498336 -11.1875 60.5 C-9.03082932 60.06526187 -6.87392957 59.63165856 -4.71679688 59.19921875 C0.52484923 58.14588615 5.76349046 57.07856249 11 56 C11.67684298 59.03949302 12.33961872 62.08189165 13 65.125 C13.19078125 65.9809375 13.3815625 66.836875 13.578125 67.71875 C14.54920333 72.22732794 15.24359575 76.35645604 15 81 C8.17679106 82.44669892 1.34859563 83.86784118 -5.48339844 85.27246094 C-7.8003364 85.75180522 -10.11613441 86.23669802 -12.43066406 86.72753906 C-49.24593566 94.52333988 -49.24593566 94.52333988 -64.23828125 85.6796875 C-73.60399389 79.22422455 -78.76891853 69.51482358 -81.6171875 58.64453125 C-83.4022398 46.31309851 -82.15312472 35.84479114 -76.3125 24.8125 C-65.56872594 11.74574776 -53.22006568 9.11048127 -37.375 5.9375 C-35.71204821 5.59663544 -34.04928603 5.25484447 -32.38671875 4.91210938 C-29.14076175 4.2446486 -25.89309471 3.5867953 -22.64355469 2.93701172 C-19.60819077 2.32919625 -16.57849881 1.70062863 -13.55175781 1.05126953 C-12.51639389 0.83296227 -12.51639389 0.83296227 -11.46011353 0.61024475 C-9.60344401 0.21819803 -7.74819783 -0.18057249 -5.89306641 -0.57983398 C-3 -1 -3 -1 0 0 Z " fill="#000000" transform="translate(987,406)"/>
<path d="M0 0 C9.26350934 8.52311733 12.84396334 19.79510218 14.07421875 32.09765625 C14.47891406 44.30889743 11.05840901 54.50834779 2.75 63.4375 C-7.52006205 73.29022737 -19.67313809 74.43838822 -33.2109375 76.24609375 C-35.08483154 76.50205322 -35.08483154 76.50205322 -36.99658203 76.76318359 C-41.15004406 77.33008482 -45.30519843 77.88366502 -49.4609375 78.43359375 C-50.13973969 78.52431152 -50.81854187 78.6150293 -51.51791382 78.70849609 C-53.48264275 78.96948935 -55.44834413 79.223129 -57.4140625 79.4765625 C-58.55520508 79.62504639 -59.69634766 79.77353027 -60.87207031 79.92651367 C-64.33872391 80.25832484 -67.73061398 80.30052561 -71.2109375 80.24609375 C-73.09943427 72.28873843 -73.76441872 64.40093678 -74.2109375 56.24609375 C-71.69112762 55.8223805 -69.17050049 55.40609066 -66.6484375 54.99609375 C-65.41988037 54.79584595 -65.41988037 54.79584595 -64.16650391 54.59155273 C-58.57802594 53.70727432 -52.98207332 52.9591022 -47.36328125 52.296875 C-45.98444983 52.13123937 -44.605625 51.96554897 -43.22680664 51.79980469 C-41.17119427 51.55329667 -39.11563788 51.31184508 -37.05758667 51.08654785 C-23.71744122 49.69846027 -23.71744122 49.69846027 -12.6484375 42.74609375 C-10.51720379 37.55700298 -10.45997014 32.77594432 -11.2109375 27.24609375 C-13.36080978 22.7074745 -15.68996762 20.39355444 -20.2109375 18.24609375 C-30.75572936 14.63663317 -46.28467867 19.07688431 -57.11132812 20.59204102 C-59.09957417 20.86842643 -61.08884575 21.13740186 -63.078125 21.40625 C-64.81231689 21.64807007 -64.81231689 21.64807007 -66.58154297 21.89477539 C-70.77337696 22.3005368 -74.99951084 22.24609375 -79.2109375 22.24609375 C-80.2009375 14.32609375 -81.1909375 6.40609375 -82.2109375 -1.75390625 C-75.98555377 -2.59164307 -69.76004758 -3.42833836 -63.53417969 -4.26245117 C-61.4198413 -4.54603076 -59.30558194 -4.83020026 -57.19140625 -5.11499023 C-54.13823108 -5.52616076 -51.08477029 -5.93515135 -48.03125 -6.34375 C-47.09854279 -6.46983139 -46.16583557 -6.59591278 -45.2048645 -6.72581482 C-29.27985041 -8.84959544 -13.42902827 -10.65306306 0 0 Z " fill="#000000" transform="translate(156.2109375,555.75390625)"/>
<path d="M0 0 C3.68125591 2.19757941 6.69383664 4.40823763 9.3125 7.8125 C9.3125 9.1325 9.3125 10.4525 9.3125 11.8125 C7.24038782 13.71021187 5.26842808 15.3127173 3 16.9375 C2.40509766 17.37964844 1.81019531 17.82179688 1.19726562 18.27734375 C-6.34409829 23.85542521 -6.34409829 23.85542521 -8.6875 23.5625 C-10.6875 22.8125 -10.6875 22.8125 -13.6875 20.8125 C-19.55695179 20.47710275 -24.24638446 21.9000887 -28.6875 25.8125 C-31.14409374 29.3438535 -31.85019894 30.85438402 -31.125 35.125 C-30.00177413 37.89684575 -30.00177413 37.89684575 -27.90625 38.578125 C-25.08666937 38.87596802 -23.39532831 38.26437402 -20.75 37.25 C-19.78449219 36.88003906 -18.81898438 36.51007812 -17.82421875 36.12890625 C-14.52004093 34.74222141 -11.29639364 33.23051842 -8.0625 31.6875 C0.44961691 27.69366316 9.16704893 24.89148589 18.4375 28.0625 C26.13099011 31.30264295 29.50943997 36.60353493 33.3125 43.8125 C35.76297395 51.16392185 34.71857066 58.51175995 31.5703125 65.46875 C25.13669191 77.4568629 15.38337312 84.34907572 2.875 89.125 C-5.94151436 90.8264326 -13.81424573 90.41635207 -21.6875 85.8125 C-24.30828411 83.70366117 -26.6757821 81.51699492 -28.6875 78.8125 C-28.6875 78.1525 -28.6875 77.4925 -28.6875 76.8125 C-27.03515625 75.39208984 -27.03515625 75.39208984 -24.75 73.7734375 C-23.93789063 73.19335938 -23.12578125 72.61328125 -22.2890625 72.015625 C-21.43054688 71.41234375 -20.57203125 70.8090625 -19.6875 70.1875 C-18.82898438 69.57648438 -17.97046875 68.96546875 -17.0859375 68.3359375 C-14.9572303 66.82219016 -12.82434266 65.3147307 -10.6875 63.8125 C-9.93339844 64.29847656 -9.17929687 64.78445313 -8.40234375 65.28515625 C-4.85192106 67.2825883 -2.71375583 67.30695247 1.3125 66.8125 C4.58861403 65.10084023 4.58861403 65.10084023 7.3125 62.8125 C7.910625 62.338125 8.50875 61.86375 9.125 61.375 C10.79760325 59.17420625 11.17817344 57.56619449 11.3125 54.8125 C9.98096734 52.50745956 9.98096734 52.50745956 8.3125 50.8125 C1.50910568 51.26133504 -3.58657175 53.2965961 -9.6875 56.25 C-18.99268929 60.71226123 -28.34118912 65.10118731 -38.75 61.625 C-45.92858775 58.63161206 -50.23877397 53.60583957 -53.6875 46.8125 C-56.8708756 38.32349841 -56.20518441 31.72520451 -52.94140625 23.48046875 C-47.24118101 11.35195211 -36.68213993 4.01738129 -24.6875 -1.1875 C-17.17424541 -3.6919182 -7.15314075 -3.44690619 0 0 Z " fill="#000000" transform="translate(799.6875,830.1875)"/>
<path d="M0 0 C10.86154479 7.43632735 19.65483672 18.14030721 22.19921875 31.37109375 C23.00562681 40.38700024 22.06132214 48.124285 16.59765625 55.546875 C15.19245867 57.20847119 13.70339961 58.79854103 12.19921875 60.37109375 C6.99727253 59.51545046 5.00175499 56.00874054 1.88671875 52.05859375 C1.32404297 51.38119141 0.76136719 50.70378906 0.18164062 50.00585938 C-0.34494141 49.34650391 -0.87152344 48.68714844 -1.4140625 48.0078125 C-2.13783081 47.10615356 -2.13783081 47.10615356 -2.8762207 46.1862793 C-3.80078125 44.37109375 -3.80078125 44.37109375 -3.52026367 42.29223633 C-2.80078125 40.37109375 -2.80078125 40.37109375 -1.67578125 37.99609375 C-0.5501413 34.61917389 -0.82497314 32.78642215 -1.80078125 29.37109375 C-4.34214778 24.66485944 -6.99187081 21.77554897 -11.80078125 19.37109375 C-15.65203382 19.45094006 -15.65203382 19.45094006 -18.80078125 21.37109375 C-19.6617418 28.18550487 -16.98887004 32.90524313 -13.92578125 38.87109375 C-8.93104173 48.76263672 -4.38628906 58.23167366 -7.3828125 69.57421875 C-10.18326463 76.07024468 -15.96820019 81.60130861 -22.35546875 84.55078125 C-30.27972834 87.20907919 -37.75970253 86.66319713 -45.34375 83.21484375 C-57.48095863 76.44058777 -65.23436863 66.46429578 -69.47265625 53.28125 C-70.92517958 44.8254892 -69.98959484 37.35470406 -65.37109375 30.13671875 C-61.40514172 24.57254724 -61.40514172 24.57254724 -57.80078125 23.37109375 C-56.19631194 25.45419461 -54.59219607 27.53756602 -52.98828125 29.62109375 C-52.53646484 30.20761719 -52.08464844 30.79414062 -51.61914062 31.3984375 C-50.73972056 32.54104167 -49.86221932 33.68512574 -48.98681641 34.83081055 C-47.99489851 36.11899705 -46.9805409 37.38986361 -45.9609375 38.65625 C-44.80078125 40.37109375 -44.80078125 40.37109375 -45.05078125 42.55859375 C-45.80078125 44.37109375 -45.80078125 44.37109375 -46.80078125 45.37109375 C-47.41009203 51.26109796 -46.81109615 54.2466631 -43.1875 58.92578125 C-40.79694109 61.41734969 -39.18278779 62.33990954 -35.73828125 62.62109375 C-32.67851389 62.67855789 -32.67851389 62.67855789 -30.80078125 60.37109375 C-30.52214881 52.29075304 -34.09734594 46.26887784 -37.79296875 39.3359375 C-41.81280957 31.66775773 -45.45587109 23.10874296 -43.3046875 14.3515625 C-40.55017517 6.21252323 -35.34831477 1.20269602 -27.80078125 -2.62890625 C-18.13075704 -6.25516533 -8.85381298 -5.14928872 0 0 Z " fill="#000000" transform="translate(234.80078125,756.62890625)"/>
<path d="M0 0 C1.63972956 2.99216766 3.25896597 5.99497804 4.875 9 C5.33519531 9.83917969 5.79539062 10.67835938 6.26953125 11.54296875 C11.25267471 20.85928044 13.81887231 30.04289303 11 40.5 C7.25007779 50.15970148 -0.57550552 55.51975036 -9.5 60 C-11.44062346 61.01463239 -13.38072317 62.03026713 -15.3203125 63.046875 C-16.27454102 63.53994141 -17.22876953 64.03300781 -18.21191406 64.54101562 C-22.31679141 66.68906703 -26.34785258 68.96041664 -30.375 71.25 C-31.67445369 71.98442007 -32.97393 72.71880013 -34.2734375 73.453125 C-35.17320312 73.96359375 -36.07296875 74.4740625 -37 75 C-36.3503125 76.13888672 -36.3503125 76.13888672 -35.6875 77.30078125 C-35.130625 78.29464844 -34.57375 79.28851562 -34 80.3125 C-33.443125 81.29863281 -32.88625 82.28476562 -32.3125 83.30078125 C-31 86 -31 86 -31 89 C-34.23877987 90.9801248 -35.97615359 91.14011596 -39.64648438 90.27661133 C-40.52715576 90.0749234 -41.40782715 89.87323547 -42.31518555 89.66543579 C-43.20117432 89.44584198 -44.08716309 89.22624817 -45 89 C-46.19653198 88.7132692 -46.19653198 88.7132692 -47.41723633 88.42074585 C-52.54228718 87.16408964 -57.63816714 85.79231307 -62.734375 84.42407227 C-64.59018333 83.92981258 -66.44832446 83.44423631 -68.30859375 82.96704102 C-71.01349091 82.27255962 -73.71002345 81.5515385 -76.40625 80.82421875 C-77.65613708 80.5114222 -77.65613708 80.5114222 -78.93127441 80.19230652 C-84.65362152 78.60313648 -84.65362152 78.60313648 -86.53710938 75.32348633 C-86.68986328 74.55673584 -86.84261719 73.78998535 -87 73 C-80.81642857 69.03318059 -74.47713607 65.46479154 -68 62 C-68.3081665 61.44014404 -68.61633301 60.88028809 -68.93383789 60.3034668 C-70.32055316 57.77039324 -71.69164076 55.22918682 -73.0625 52.6875 C-73.79049805 51.36588867 -73.79049805 51.36588867 -74.53320312 50.01757812 C-74.98759766 49.17001953 -75.44199219 48.32246094 -75.91015625 47.44921875 C-76.33433838 46.66893311 -76.75852051 45.88864746 -77.19555664 45.0847168 C-78 43 -78 43 -77 40 C-74.55853015 38.45004539 -72.18080713 37.08015984 -69.625 35.75 C-68.93921875 35.37359375 -68.2534375 34.9971875 -67.546875 34.609375 C-65.74083655 33.65365037 -63.87229331 32.81835337 -62 32 C-59 33 -59 33 -57.83325195 34.76586914 C-57.47191162 35.51473389 -57.11057129 36.26359863 -56.73828125 37.03515625 C-56.34189453 37.84404297 -55.94550781 38.65292969 -55.53710938 39.48632812 C-54.93092773 40.7615332 -54.93092773 40.7615332 -54.3125 42.0625 C-53.89677734 42.91650391 -53.48105469 43.77050781 -53.05273438 44.65039062 C-52.02606515 46.76273305 -51.00899792 48.87917433 -50 51 C-46.17438344 50.4062739 -43.2946668 49.28150106 -39.91015625 47.41796875 C-38.96076172 46.89783203 -38.01136719 46.37769531 -37.03320312 45.84179688 C-36.05287109 45.29587891 -35.07253906 44.74996094 -34.0625 44.1875 C-32.59780273 43.38602539 -32.59780273 43.38602539 -31.10351562 42.56835938 C-27.12145539 40.37350177 -23.18065005 38.19357586 -19.43359375 35.61328125 C-17 34 -17 34 -15 34 C-12.80240085 27.13250264 -13.78803749 22.99806164 -17 16.6875 C-17.556875 15.66011719 -18.11375 14.63273438 -18.6875 13.57421875 C-20 11 -20 11 -20 9 C-17.23456804 7.48987869 -14.46183193 5.99369852 -11.6875 4.5 C-10.90181641 4.07074219 -10.11613281 3.64148438 -9.30664062 3.19921875 C-8.54931641 2.79316406 -7.79199219 2.38710938 -7.01171875 1.96875 C-6.31522217 1.59169922 -5.61872559 1.21464844 -4.90112305 0.82617188 C-3 0 -3 0 0 0 Z " fill="#000000" transform="translate(194,686)"/>
<path d="M0 0 C6.48707154 1.6813917 12.7677635 3.53062327 19 6 C18.40421223 11.26621606 17.18691204 15.94408019 15.4375 20.9375 C15.20353516 21.62134766 14.96957031 22.30519531 14.72851562 23.00976562 C14.15788171 24.67508501 13.57972902 26.33782493 13 28 C19.95461621 30.87712038 26.96400203 33.43583561 34.125 35.75 C35.53072266 36.22373047 35.53072266 36.22373047 36.96484375 36.70703125 C42.52713841 38.50408029 47.15053812 39.51747759 53 39 C59.19629614 35.10930242 60.72143001 27.62239704 63 21 C68.14595054 21.57618751 72.55078055 22.74743278 77.4375 24.5625 C78.67371094 25.01753906 79.90992188 25.47257812 81.18359375 25.94140625 C82.11300781 26.29074219 83.04242188 26.64007813 84 27 C81.51559461 40.09959205 77.63456453 51.21464991 68.25 60.8125 C59.88517659 66.4426696 51.73987705 66.58285801 42 65 C35.28881596 63.34966244 28.74357597 61.10929649 22.1875 58.9375 C20.4164448 58.36260845 18.64496257 57.78903073 16.87304688 57.21679688 C12.57696304 55.82627996 8.28703149 54.41816775 4 53 C3.86867676 53.61415771 3.73735352 54.22831543 3.60205078 54.86108398 C3.42657715 55.66876221 3.25110352 56.47644043 3.0703125 57.30859375 C2.89773926 58.10837646 2.72516602 58.90815918 2.54736328 59.73217773 C1.93386031 62.27402836 1.07579077 64.61789187 0 67 C-4.26148952 66.20716474 -5.7262185 65.39391989 -8.234375 61.78515625 C-11.89850708 55.62786778 -15.20897281 49.26737501 -18.5625 42.9375 C-19.55478743 41.06925228 -20.54791463 39.20145837 -21.54214478 37.33424377 C-22.47742272 35.57709942 -23.41037639 33.81871853 -24.34326172 32.06030273 C-25.66810755 29.61306689 -27.04185848 27.22434492 -28.48046875 24.84375 C-30.32083913 21.3995607 -30.07945521 19.68813863 -29 16 C-21.78069368 17.44386126 -14.94889267 19.57788174 -8 22 C-4.99272217 14.76973627 -2.40673465 7.45063598 0 0 Z " fill="#000000" transform="translate(108,363)"/>
<path d="M0 0 C3.45924983 0.97594854 6.91723549 1.95630319 10.375 2.9375 C11.35984375 3.21529297 12.3446875 3.49308594 13.359375 3.77929688 C14.30039062 4.04677734 15.24140625 4.31425781 16.2109375 4.58984375 C17.08024902 4.83597412 17.94956055 5.08210449 18.84521484 5.33569336 C21 6 21 6 23 7 C22.40497671 11.77925502 21.47293686 16.24518172 20.11743164 20.86450195 C19.92852356 21.51316727 19.73961548 22.16183258 19.54498291 22.83015442 C18.92127268 24.96756232 18.29075688 27.10289707 17.66015625 29.23828125 C17.21430236 30.76096174 16.76887163 32.28376619 16.32383728 33.8066864 C15.14663141 37.83082035 13.9636361 41.85322981 12.77941895 45.87530518 C11.61441974 49.83576688 10.45490395 53.79783217 9.29492188 57.75976562 C6.77095429 66.37632181 4.23893271 74.99049803 1.7048111 83.60407257 C0.49532755 87.71557823 -0.71345717 91.82728937 -1.92236328 95.93896484 C-4.28071462 103.95956326 -6.64002794 111.97987831 -9 120 C-12.75614963 120.84088835 -14.96990066 121.01003311 -18.64453125 119.78515625 C-19.90620117 119.37426758 -19.90620117 119.37426758 -21.19335938 118.95507812 C-22.05767578 118.66052734 -22.92199219 118.36597656 -23.8125 118.0625 C-25.13797852 117.62647461 -25.13797852 117.62647461 -26.49023438 117.18164062 C-28.66389032 116.46492164 -30.83331776 115.73747903 -33 115 C-32.30583188 108.20242618 -30.34588448 101.84000361 -28.421875 95.30078125 C-28.05853561 94.05211777 -27.69519623 92.80345428 -27.32084656 91.51695251 C-26.33917786 88.1440761 -25.35154 84.77297583 -24.36256027 81.40223694 C-23.33889651 77.91002877 -22.32035519 74.41632665 -21.30102539 70.92285156 C-19.06453339 63.26236403 -16.81902226 55.60453729 -14.57141876 47.94730377 C-13.67754591 44.90112804 -12.78489714 41.85459365 -11.89208984 38.80810547 C-10.0781461 32.62081523 -8.25919949 26.43501067 -6.4375 20.25 C-6.16264771 19.31539948 -5.88779541 18.38079895 -5.60461426 17.4178772 C-4.84136588 14.82483641 -4.075493 12.23258803 -3.30859375 9.640625 C-3.08652756 8.88530991 -2.86446136 8.12999481 -2.63566589 7.35179138 C-1.11518626 2.23037252 -1.11518626 2.23037252 0 0 Z " fill="#000000" transform="translate(667,58)"/>
<path d="M0 0 C1.40625 2.73046875 1.40625 2.73046875 2.5 6.1875 C5.38783915 14.51355743 5.38783915 14.51355743 12 20 C21.72258937 21.67996131 31.07257191 17.34426172 40.0625 14.1875 C41.67464765 13.63335972 43.28727558 13.08061468 44.90039062 12.52929688 C47.88075573 11.50884423 50.8579665 10.48010151 53.83227539 9.44213867 C54.50880157 9.2097348 55.18532776 8.97733093 55.88235474 8.73788452 C57.38852161 8.21306705 58.88854627 7.67047614 60.38400269 7.11587524 C61.17308014 6.83182831 61.96215759 6.54778137 62.77514648 6.25512695 C63.84477882 5.85956352 63.84477882 5.85956352 64.9360199 5.45600891 C67.34577799 4.92360496 68.71335651 5.09805789 71 6 C72.09667969 8.13305664 72.09667969 8.13305664 72.921875 10.91015625 C73.37626953 12.39418945 73.37626953 12.39418945 73.83984375 13.90820312 C74.29037109 15.46958008 74.29037109 15.46958008 74.75 17.0625 C75.06582031 18.10728516 75.38164062 19.15207031 75.70703125 20.22851562 C76.48648899 22.81489813 77.24997689 25.40495799 78 28 C56.9288624 35.45278092 35.8246206 42.79491854 14.625 49.875 C13.6998761 50.18503967 12.7747522 50.49507935 11.82159424 50.81451416 C9.20771898 51.6896917 6.59244357 52.56052627 3.9765625 53.4296875 C3.19506836 53.69150818 2.41357422 53.95332886 1.60839844 54.2230835 C-3.76929193 56 -3.76929193 56 -6 56 C-6.67679658 54.274773 -7.34102 52.54461061 -8 50.8125 C-8.37125 49.84957031 -8.7425 48.88664063 -9.125 47.89453125 C-9.99644718 45.01175286 -10.39913635 42.9808917 -10 40 C-7.0625 37.3125 -7.0625 37.3125 -4 35 C-3.67 34.34 -3.34 33.68 -3 33 C-3.5775 32.90074219 -4.155 32.80148437 -4.75 32.69921875 C-10.9196866 30.78190295 -16.04712217 24.48391597 -19 19 C-23.30706179 8.92118537 -23.30706179 8.92118537 -22 5 C-19.24333746 3.75772718 -16.60027608 2.72050723 -13.75 1.75 C-12.98558594 1.46898437 -12.22117187 1.18796875 -11.43359375 0.8984375 C-3.63274774 -1.82310118 -3.63274774 -1.82310118 0 0 Z " fill="#000000" transform="translate(113,650)"/>
<path d="M0 0 C29.04 0 58.08 0 88 0 C88 5.28 88 10.56 88 16 C82 19 82 19 79 19 C79.70576172 19.90878906 79.70576172 19.90878906 80.42578125 20.8359375 C88.38747895 31.55043751 89.38974375 39.74871234 89 53 C81.41 53 73.82 53 66 53 C65.1875 43.8125 65.1875 43.8125 64.95385742 40.94458008 C64.50204266 36.2926163 64.01389666 32.76552859 61 29 C53.6539425 24.32523614 45.23291122 24.82233814 36.81640625 24.68359375 C35.76090073 24.66281265 34.7053952 24.64203156 33.61790466 24.62062073 C30.2661655 24.55555152 26.914352 24.49643948 23.5625 24.4375 C21.28189354 24.39427419 19.00129443 24.35065864 16.72070312 24.30664062 C11.14721029 24.19918514 5.57365626 24.09979499 0 24 C0 16.08 0 8.16 0 0 Z " fill="#000000" transform="translate(915,516)"/>
<path d="M0 0 C3.69217064 0.59630735 6.60765048 1.63089509 9.9296875 3.3359375 C10.8774707 3.81724121 11.82525391 4.29854492 12.80175781 4.79443359 C14.3230127 5.57681396 14.3230127 5.57681396 15.875 6.375 C18.05381848 7.4808805 20.23352763 8.58500767 22.4140625 9.6875 C23.51782227 10.24566406 24.62158203 10.80382812 25.75878906 11.37890625 C30.5573082 13.7788887 35.40032413 16.08062644 40.25 18.375 C53.60414257 24.70771029 66.80044236 31.35273024 80 38 C78.54555549 41.10600335 77.08577648 44.20947021 75.625 47.3125 C75.2125 48.19357422 74.8 49.07464844 74.375 49.98242188 C73.97539062 50.82998047 73.57578125 51.67753906 73.1640625 52.55078125 C72.79748535 53.33106689 72.4309082 54.11135254 72.05322266 54.9152832 C71 57 71 57 69 60 C62.9813942 58.28474809 57.61176033 55.39403653 52.0625 52.5625 C43.95982146 48.46680975 35.82985586 44.44946428 27.625 40.5625 C14.98690739 34.56693923 2.49121647 28.29463185 -10 22 C-8.88242976 18.50813656 -7.71609893 15.18329145 -6.0546875 11.9140625 C-5.70019531 11.21152344 -5.34570312 10.50898438 -4.98046875 9.78515625 C-4.61566406 9.07230469 -4.25085938 8.35945313 -3.875 7.625 C-3.50246094 6.88894531 -3.12992187 6.15289062 -2.74609375 5.39453125 C-1.8343878 3.59449642 -0.91770068 1.79698598 0 0 Z " fill="#000000" transform="translate(128,322)"/>
<path d="M0 0 C1.67275302 3.62222211 3.33716251 7.2482166 5 10.875 C5.47695313 11.90753906 5.95390625 12.94007813 6.4453125 14.00390625 C6.89648438 14.99003906 7.34765625 15.97617188 7.8125 16.9921875 C8.44091797 18.35899658 8.44091797 18.35899658 9.08203125 19.75341797 C10 22 10 22 10 24 C6.21388115 25.70015316 2.42029661 27.38294634 -1.375 29.0625 C-2.99535156 29.79049805 -2.99535156 29.79049805 -4.6484375 30.53320312 C-6.1953125 31.21479492 -6.1953125 31.21479492 -7.7734375 31.91015625 C-8.72653809 32.33433838 -9.67963867 32.75852051 -10.66162109 33.19555664 C-11.43328613 33.46102295 -12.20495117 33.72648926 -13 34 C-15.72655658 32.63672171 -15.97195973 31.19598497 -17.1640625 28.4140625 C-17.56367188 27.48335937 -17.96328125 26.55265625 -18.375 25.59375 C-18.7875 24.6140625 -19.2 23.634375 -19.625 22.625 C-20.04523438 21.65304688 -20.46546875 20.68109375 -20.8984375 19.6796875 C-24 12.38900162 -24 12.38900162 -24 9 C-20.56631406 7.49115787 -17.12746451 5.99446599 -13.6875 4.5 C-12.71103516 4.07074219 -11.73457031 3.64148438 -10.72851562 3.19921875 C-9.79072266 2.79316406 -8.85292969 2.38710937 -7.88671875 1.96875 C-7.02264404 1.59169922 -6.15856934 1.21464844 -5.26831055 0.82617188 C-3 0 -3 0 0 0 Z " fill="#000000" transform="translate(389,165)"/>
<path d="M0 0 C2.10262894 3.15394341 2.40447336 4.64589448 2.8515625 8.32421875 C2.98046875 9.35224609 3.109375 10.38027344 3.2421875 11.43945312 C3.36851562 12.51130859 3.49484375 13.58316406 3.625 14.6875 C3.7590625 15.77095703 3.893125 16.85441406 4.03125 17.97070312 C4.36128554 20.64634838 4.6839031 23.32267825 5 26 C-0.99977458 27.44690525 -6.92837396 28.46858287 -13.0625 29.125 C-16.9915625 29.558125 -16.9915625 29.558125 -21 30 C-22.32 21.42 -23.64 12.84 -25 4 C-12.625 2.02 -12.625 2.02 0 0 Z " fill="#000000" transform="translate(608,906)"/>
<path d="M0 0 C5.00113594 1.48008696 9.32915597 3.6318336 13.875 6.125 C14.56335938 6.49753906 15.25171875 6.87007813 15.9609375 7.25390625 C17.64294798 8.16499526 19.32180436 9.08190315 21 10 C19.4719611 15.09882455 17.28963144 19.65665659 14.875 24.375 C14.50246094 25.11105469 14.12992188 25.84710938 13.74609375 26.60546875 C12.8343878 28.40550358 11.91770068 30.20301402 11 32 C5.99886406 30.51991304 1.67084403 28.3681664 -2.875 25.875 C-3.56335938 25.50246094 -4.25171875 25.12992187 -4.9609375 24.74609375 C-6.64294798 23.83500474 -8.32180436 22.91809685 -10 22 C-8.5215088 18.70802953 -7.0420924 15.41647566 -5.5625 12.125 C-5.14162109 11.18785156 -4.72074219 10.25070312 -4.28710938 9.28515625 C-3.88427734 8.38925781 -3.48144531 7.49335938 -3.06640625 6.5703125 C-2.69459229 5.74289551 -2.32277832 4.91547852 -1.93969727 4.06298828 C-1.31759823 2.69724736 -0.67115654 1.34231307 0 0 Z " fill="#000000" transform="translate(98,307)"/>
</svg> -->


<svg version="1.1" id="Layer_1" xmlns="http://www.w3.org/2000/svg" xmlns:xlink="http://www.w3.org/1999/xlink" x="0px" y="0px"
	 width="100%" viewBox="0 0 496 496" enable-background="new 0 0 496 496" xml:space="preserve">
<path fill="#000000" opacity="1.000000" stroke="none" 
	d="
M234.709045,430.040100 
	C233.852875,421.895844 233.015533,414.202759 232.178207,406.509705 
	C231.777771,406.416046 231.377335,406.322418 230.976898,406.228790 
	C226.648514,413.253662 222.317795,420.277069 217.993881,427.304657 
	C217.208420,428.581299 216.397171,429.846466 215.692337,431.167358 
	C214.502060,433.397949 213.051285,434.884796 210.172394,434.266968 
	C207.187943,433.626495 206.903381,431.532257 206.646088,429.050568 
	C205.624542,419.197754 204.460403,409.359741 203.181412,398.030853 
	C197.356522,407.720703 192.158005,416.179260 187.167725,424.758881 
	C185.032471,428.430023 182.635849,429.351471 179.162949,426.632172 
	C179.244247,424.063995 180.947388,422.301910 182.106674,420.340790 
	C187.955231,410.446808 193.920288,400.621826 199.802383,390.747528 
	C201.004089,388.730194 202.266663,387.325012 204.982285,388.052643 
	C207.750397,388.794342 209.061508,390.177155 209.343246,393.201874 
	C210.231079,402.732910 211.444778,412.233612 212.627411,422.577393 
	C216.788101,418.354858 218.609695,413.666595 221.312775,409.597687 
	C224.167725,405.300171 226.770844,400.828308 229.332947,396.346283 
	C230.615921,394.101898 232.362427,394.196686 234.459885,394.629547 
	C236.387817,395.027435 238.026962,395.601227 238.260010,397.889160 
	C239.657593,411.610229 241.056656,425.331146 242.422287,439.055359 
	C242.466461,439.499329 242.155334,439.978638 242.017197,440.418030 
	C235.778412,440.331970 235.778412,440.331970 234.709045,430.040100 
z"/>
<path fill="#000000" opacity="1.000000" stroke="none" 
	d="
M366.087219,319.957153 
	C366.913574,319.333221 367.401276,318.831055 367.994751,318.564056 
	C370.107483,317.613525 372.318604,315.185608 374.455444,318.313446 
	C376.996765,322.033417 373.471039,322.661957 371.342590,323.972412 
	C368.902039,325.475098 366.852478,327.419434 365.157013,329.723053 
	C360.874298,335.541992 361.577057,339.563477 368.009796,344.246826 
	C368.638245,337.902313 370.909973,332.561554 376.226715,328.970978 
	C379.056366,327.059998 382.162903,325.853180 385.591553,325.996246 
	C392.617920,326.289520 399.328552,331.737793 400.969147,338.292236 
	C402.944733,346.185120 398.669373,354.005188 389.705017,358.898102 
	C388.628143,359.905731 389.966675,360.708740 389.929565,361.602722 
	C389.772888,365.375916 387.027832,366.874756 383.928162,364.690094 
	C376.713531,359.605255 369.458588,354.555603 362.510986,349.119690 
	C354.814362,343.097717 353.849304,335.775330 359.172974,327.604828 
	C360.999420,324.801727 363.091187,322.214661 366.087219,319.957153 
M379.740540,353.090973 
	C381.457001,353.889740 383.283020,354.008301 385.120422,353.842438 
	C390.031067,353.399109 394.419678,348.520264 394.694092,343.262421 
	C394.953949,338.284760 391.714264,334.175873 386.807831,333.260193 
	C381.895844,332.343475 377.181396,334.910065 375.035889,339.668945 
	C372.901672,344.402832 374.256958,348.803223 379.740540,353.090973 
z"/>
<path fill="#000000" opacity="1.000000" stroke="none" 
	d="
M435.200409,203.107178 
	C435.943970,210.920776 438.844910,218.059418 437.480896,225.675003 
	C435.576019,236.309982 429.030457,242.364777 417.460052,243.970184 
	C409.320160,245.099579 400.596954,239.984177 396.648895,231.465378 
	C393.316376,224.274796 393.068481,216.344864 391.668610,208.695938 
	C391.218262,206.235443 392.832581,205.410614 394.755463,205.069199 
	C406.678375,202.952316 418.613678,200.905533 430.539673,198.806046 
	C433.673950,198.254288 434.638306,200.161774 435.200409,203.107178 
M404.923065,210.428818 
	C403.002838,211.257385 400.638153,210.732071 398.837585,212.336502 
	C399.417114,217.489594 399.876038,222.622345 401.847321,227.411621 
	C404.492188,233.837402 409.783447,237.015518 416.802094,236.677582 
	C423.602509,236.350143 428.635162,232.293930 430.743988,225.842758 
	C432.735138,219.751541 430.389282,214.052399 429.473206,208.233902 
	C429.156158,206.220093 427.394836,206.641190 425.840576,206.916580 
	C419.152191,208.101685 412.449280,209.204819 404.923065,210.428818 
z"/>
<path fill="#000000" opacity="1.000000" stroke="none" 
	d="
M81.409882,333.519714 
	C78.260368,326.355011 74.568527,319.752563 76.334175,311.777313 
	C78.411842,302.392731 84.496262,297.030273 93.460876,295.059753 
	C102.220726,293.134277 109.605049,296.138947 114.955750,303.343719 
	C119.457214,309.404938 121.676979,316.662750 124.753036,323.464661 
	C125.793892,325.766235 124.396294,326.801880 122.540886,327.624695 
	C111.452950,332.541779 100.353111,337.432983 89.305397,342.439087 
	C86.634041,343.649567 85.289825,342.694489 84.327942,340.275330 
	C83.468872,338.114777 82.493950,336.000305 81.409882,333.519714 
M85.963989,328.533661 
	C86.901901,330.438202 87.839813,332.342712 88.986786,334.671753 
	C94.769234,332.151062 100.205498,329.772369 105.648911,327.410156 
	C118.213921,321.957367 118.839981,319.569092 110.654938,308.120941 
	C110.077873,307.313812 109.438759,306.536346 108.739517,305.833649 
	C103.716751,300.786041 96.960854,299.957764 90.442177,303.558929 
	C84.097412,307.063965 81.225952,313.427490 83.040756,320.345459 
	C83.710945,322.900146 84.749886,325.358093 85.963989,328.533661 
z"/>
<path fill="#000000" opacity="1.000000" stroke="none" 
	d="
M139.566345,385.565857 
	C136.337280,388.940826 133.328903,392.038757 130.351013,395.165680 
	C128.828308,396.764679 127.376526,397.031189 125.673141,395.353302 
	C124.021164,393.725983 123.199577,392.121643 125.305115,390.344543 
	C128.473053,387.670837 131.708801,385.077484 134.502075,381.726990 
	C127.980186,379.710968 123.522598,376.562561 120.750877,371.330505 
	C119.088463,368.192474 118.285507,364.835541 119.075546,361.229675 
	C120.895340,352.923828 128.421082,346.571411 136.371964,346.679626 
	C144.720230,346.793213 151.092941,352.512665 152.716949,361.744263 
	C155.203217,360.082336 157.330566,360.605042 158.857620,363.011353 
	C160.628448,365.801849 157.909760,366.860016 156.574631,368.250000 
	C151.051788,373.999725 145.402496,379.627960 139.566345,385.565857 
M128.225143,357.777740 
	C124.277199,364.275360 125.301788,370.283905 130.924301,373.606415 
	C136.098404,376.664001 143.090866,374.238342 146.043839,368.361481 
	C148.758926,362.958008 146.568344,356.895355 140.859726,354.275269 
	C136.075867,352.079590 132.177551,353.846619 128.225143,357.777740 
z"/>
<path fill="#000000" opacity="1.000000" stroke="none" 
	d="
M150.251190,142.090271 
	C148.287689,142.412811 147.260132,143.001633 148.656052,144.704971 
	C150.236450,146.633423 151.920395,148.476761 153.512436,150.395981 
	C156.964951,154.558044 156.802582,155.166962 151.212021,158.070068 
	C144.550797,150.401138 137.811157,142.640167 131.069214,134.881195 
	C129.214783,132.747040 127.259743,130.691635 125.528778,128.461975 
	C124.407326,127.017448 121.991341,125.821335 123.507996,123.446404 
	C124.862061,121.326057 126.792938,120.128700 129.176956,121.929375 
	C130.568039,119.392624 131.511124,117.036873 132.992523,115.090927 
	C137.381622,109.325508 144.814453,106.987305 151.208374,109.088882 
	C158.282166,111.413910 163.325699,118.296234 163.347244,125.653397 
	C163.370331,133.546112 159.219650,138.856842 150.251190,142.090271 
M138.051636,118.566376 
	C134.439606,123.650261 134.342834,127.814850 137.736450,132.130249 
	C141.010147,136.293167 145.699020,137.767456 150.027451,135.865372 
	C153.939713,134.146179 156.536911,131.378952 156.684067,126.836487 
	C156.840179,122.017502 154.589752,118.462181 150.485962,116.325623 
	C146.276047,114.133827 142.154953,114.710327 138.051636,118.566376 
z"/>
<path fill="#000000" opacity="1.000000" stroke="none" 
	d="
M381.562805,127.557220 
	C383.373169,125.581703 384.992188,123.904121 386.506378,122.136711 
	C388.296234,120.047531 389.897736,120.004944 391.910187,121.990593 
	C393.861694,123.916092 393.360168,125.333542 391.716858,127.037094 
	C386.520813,132.423645 381.594666,138.086121 376.199249,143.261459 
	C364.926605,154.074326 348.179688,149.175339 344.129456,134.025040 
	C342.609619,128.339783 344.628845,123.339081 348.122375,119.176338 
	C353.461151,112.814903 359.314026,106.885414 364.935425,100.760406 
	C366.601105,98.945496 368.029083,99.512497 369.620178,100.955452 
	C371.417175,102.585175 371.861481,104.009773 369.984924,105.959335 
	C364.910614,111.231003 359.891968,116.559151 354.960663,121.964676 
	C349.937744,127.470673 349.422302,132.860657 353.269836,137.563797 
	C358.388916,143.821274 364.519257,144.421631 370.545166,138.901779 
	C374.339661,135.425964 377.745117,131.525406 381.562805,127.557220 
z"/>
<path fill="#000000" opacity="1.000000" stroke="none" 
	d="
M308.897095,74.802788 
	C307.351898,81.517464 306.188690,87.912498 304.469116,94.154251 
	C301.309875,105.621666 293.218109,110.481323 282.273315,107.866791 
	C270.940857,105.159653 266.102844,97.310143 268.500000,85.363647 
	C269.840393,78.683617 271.246338,72.014778 272.768799,65.374390 
	C273.249268,63.278755 273.197235,60.514565 276.956085,61.295143 
	C280.520325,62.035313 280.430542,64.007118 279.755432,66.803658 
	C278.234619,73.103149 276.748444,79.420029 275.553711,85.787163 
	C273.593018,96.236359 278.034668,102.053627 287.496765,101.788773 
	C292.760437,101.641434 296.090546,98.785683 297.658813,92.539879 
	C299.277435,86.093674 300.487427,79.545219 302.085297,73.093292 
	C302.707764,70.579872 302.577118,66.848732 307.031860,67.914749 
	C311.239685,68.921684 309.114990,72.011803 308.897095,74.802788 
z"/>
<path fill="#000000" opacity="1.000000" stroke="none" 
	d="
M395.040955,170.055115 
	C392.235199,176.671524 389.574921,182.947327 386.879425,189.207962 
	C386.779755,189.439529 386.336212,189.523056 385.756927,189.834946 
	C382.641174,187.293091 381.700256,184.448898 383.493866,180.431229 
	C385.636414,175.631958 388.030029,170.873383 389.196533,165.663895 
	C381.774567,161.499207 370.955200,168.047150 365.346130,157.197800 
	C373.214111,155.792419 380.236572,157.529434 387.178772,158.129410 
	C391.525177,158.505035 393.120453,157.074203 394.484436,153.550095 
	C396.810303,147.540726 399.433380,141.646408 402.087280,135.333405 
	C405.941742,138.170227 407.038727,141.043991 405.223572,145.056549 
	C403.191376,149.548874 401.465851,154.179916 399.336548,159.415176 
	C404.670471,159.892105 409.244476,160.570480 413.826874,160.632751 
	C418.150055,160.691513 420.715332,162.410141 421.741821,167.048691 
	C414.693878,168.238876 407.888123,166.332870 401.056671,166.068527 
	C397.881226,165.945648 395.910431,166.493011 395.040955,170.055115 
z"/>
<path fill="#000000" opacity="1.000000" stroke="none" 
	d="
M153.283936,397.434509 
	C150.528885,392.401611 150.558014,387.642578 152.565750,382.726532 
	C153.910080,379.434875 155.433197,378.462036 158.906754,380.515961 
	C164.866577,384.039948 170.514175,388.177032 177.020981,390.824951 
	C179.245438,383.833527 174.841202,377.952759 167.031998,377.103943 
	C165.581619,376.946320 163.977325,377.503845 162.714066,376.392578 
	C161.567276,375.383728 161.505630,373.928070 161.945190,372.695740 
	C162.723679,370.513275 164.793564,370.714233 166.603882,370.737793 
	C175.009201,370.847290 182.967026,377.576874 184.632462,385.931244 
	C186.027466,392.929047 181.634109,401.148773 174.795349,404.335968 
	C167.160522,407.894104 159.292450,405.464417 153.283936,397.434509 
M158.151840,387.453430 
	C156.837814,392.507202 158.725204,396.686829 163.280014,398.809814 
	C167.484131,400.769348 171.250427,399.815796 174.076553,395.846222 
	C169.097549,392.652283 164.264313,389.269012 158.151840,387.453430 
z"/>
<path fill="#000000" opacity="1.000000" stroke="none" 
	d="
M321.219116,393.131714 
	C324.096344,391.478210 327.141937,390.789337 329.107880,388.348358 
	C324.353516,382.769928 316.312683,383.385956 311.819885,389.808807 
	C310.249084,392.054413 308.944702,394.289581 306.082672,391.996796 
	C303.343292,389.802246 305.707336,387.757019 306.934814,386.019958 
	C311.518372,379.533661 321.001038,376.601654 328.292877,379.239014 
	C335.404358,381.811157 339.935272,389.358002 339.300323,397.573425 
	C338.757385,404.598572 332.601074,410.839996 324.909912,412.162811 
	C318.569153,413.253357 311.176971,409.342407 308.215790,403.541870 
	C306.912079,400.988098 307.576294,399.567261 310.066132,398.456329 
	C313.714294,396.828491 317.285553,395.028229 321.219116,393.131714 
M316.005859,401.834656 
	C318.204834,405.699188 322.389954,407.052521 326.794250,405.323151 
	C331.431915,403.502136 333.303192,399.511230 331.865051,393.622192 
	C326.636444,396.234741 321.516815,398.792816 316.005859,401.834656 
z"/>
<path fill="#000000" opacity="1.000000" stroke="none" 
	d="
M181.923019,121.352158 
	C172.475800,123.606583 164.886383,119.667274 161.492157,111.042702 
	C158.257675,102.824066 161.059662,94.807556 168.678452,90.482620 
	C176.140778,86.246498 184.443695,87.790779 189.695374,94.391632 
	C193.097443,98.667702 192.901596,99.710480 188.135040,102.201454 
	C182.272903,105.264969 176.394302,108.297005 170.485794,111.361847 
	C174.044876,116.976494 181.261322,117.024467 186.423813,111.921844 
	C187.354950,111.001503 188.173569,109.897675 188.788467,108.742455 
	C189.861511,106.726601 191.241455,106.942162 192.952576,107.759239 
	C194.992798,108.733467 194.948593,110.214684 194.106735,111.898666 
	C191.636292,116.840347 187.401535,119.589058 181.923019,121.352158 
M170.237640,96.635872 
	C168.050919,98.362053 166.773361,100.677551 166.532547,103.381126 
	C166.376099,105.137459 167.033737,107.038834 169.395477,105.935249 
	C174.247131,103.668167 179.183640,101.489998 183.561340,98.238914 
	C179.771439,93.528358 176.707703,93.119102 170.237640,96.635872 
z"/>
<path fill="#000000" opacity="1.000000" stroke="none" 
	d="
M97.054810,261.274933 
	C98.621719,258.370453 100.361824,257.801239 102.760574,259.926483 
	C108.318031,264.850281 109.376427,276.707977 104.786018,283.536774 
	C100.455719,289.978607 90.147728,292.463715 82.771431,288.844177 
	C75.861572,285.453461 72.187386,276.450012 74.516747,268.808899 
	C76.291641,262.986572 80.423050,259.697266 86.014374,258.049469 
	C89.022133,257.163086 90.994064,257.710846 91.440781,261.584015 
	C92.233055,268.453339 93.573593,275.259399 94.694267,282.150513 
	C101.578476,280.043976 103.648392,272.355774 99.587242,265.749176 
	C98.733131,264.359711 97.040878,263.502075 97.054810,261.274933 
M85.425079,283.030640 
	C86.647095,283.531677 87.873611,284.131805 89.190109,282.737122 
	C88.438385,276.907867 88.115990,270.901123 86.235359,265.032379 
	C78.289520,269.043304 77.846054,276.965790 85.425079,283.030640 
z"/>
<path fill="#000000" opacity="1.000000" stroke="none" 
	d="
M104.456070,218.730240 
	C96.249092,222.544861 88.809929,221.602249 83.350334,216.308090 
	C78.360512,211.469467 76.981842,204.026932 79.844650,197.383118 
	C82.786430,190.556015 90.159531,186.640793 97.374298,187.870255 
	C100.939919,188.477859 102.216057,190.039474 101.073097,193.682968 
	C98.998047,200.297760 97.173706,206.991226 95.217766,213.744949 
	C101.645538,214.378326 106.354385,209.847473 106.653320,203.248825 
	C106.720306,201.770157 106.661491,200.206940 106.248962,198.803665 
	C105.612656,196.639191 106.043243,195.243637 108.251076,194.511429 
	C110.831841,193.655518 111.463417,195.568924 112.087494,197.286957 
	C114.635292,204.300903 111.630287,212.942963 104.456070,218.730240 
M90.811874,209.906509 
	C92.218513,204.898727 94.205879,200.031616 94.821899,194.554428 
	C90.149658,193.986603 87.284378,195.973801 85.421013,199.689163 
	C83.531944,203.455780 83.928085,207.093185 86.575211,210.321533 
	C87.640900,211.621231 89.113419,213.539795 90.811874,209.906509 
z"/>
<path fill="#000000" opacity="1.000000" stroke="none" 
	d="
M410.618713,259.144958 
	C410.757202,255.155396 409.189972,254.663818 406.355835,256.367126 
	C401.891602,259.050171 400.017609,265.799500 402.385284,271.448120 
	C403.269562,273.557739 404.396820,275.533844 401.609894,276.914276 
	C398.706635,278.352386 397.664062,275.995789 396.851715,274.061554 
	C393.921021,267.083099 394.541504,260.287476 399.180542,254.312347 
	C403.138641,249.214294 408.659790,247.246735 415.111755,248.386902 
	C422.106140,249.622925 426.969574,253.363892 428.845612,260.433197 
	C431.688690,271.146118 423.679016,281.582550 412.983093,281.350220 
	C409.763397,281.280243 408.370789,280.053101 408.724945,276.853394 
	C409.363220,271.086548 409.980225,265.317322 410.618713,259.144958 
M419.422211,272.905731 
	C425.707458,266.448822 424.642761,259.243103 416.731171,256.027374 
	C414.376129,260.589600 415.682587,265.725677 414.519836,270.477875 
	C413.606873,274.209076 415.338196,275.487885 419.422211,272.905731 
z"/>
<path fill="#000000" opacity="1.000000" stroke="none" 
	d="
M102.515694,163.097778 
	C99.362801,154.459564 101.867470,147.639252 108.328262,142.240921 
	C113.906570,137.579941 120.213356,137.469818 126.552269,140.735580 
	C132.776138,143.942078 135.981705,149.349930 135.725494,156.168121 
	C135.456390,163.329834 131.749283,168.828247 125.101646,171.866531 
	C118.924370,174.689819 113.080688,173.646912 107.762634,169.535645 
	C105.632614,167.888977 103.897224,165.876694 102.515694,163.097778 
M117.067680,166.564163 
	C124.173485,166.695892 128.824677,163.137207 129.494354,157.056366 
	C130.031647,152.177689 125.123932,146.326187 119.729065,145.413116 
	C114.062355,144.454041 108.975517,148.096542 107.635155,154.073120 
	C106.534004,158.983109 109.631897,163.376816 117.067680,166.564163 
z"/>
<path fill="#000000" opacity="1.000000" stroke="none" 
	d="
M357.585938,363.392609 
	C355.877716,361.323517 354.377808,359.544678 352.922485,357.730011 
	C351.659882,356.155548 351.744537,354.790741 353.482758,353.515900 
	C355.093719,352.334412 356.556854,351.446869 358.194153,353.418365 
	C364.542297,361.062317 370.903870,368.695129 377.238861,376.306122 
	C375.462524,379.431824 373.433594,380.882263 370.484070,379.460999 
	C369.154541,381.780365 368.211517,383.950470 366.814484,385.772400 
	C360.526978,393.971893 351.601135,394.373627 344.707886,386.749481 
	C341.254333,382.929810 338.060150,378.876282 334.726715,374.947174 
	C333.092743,373.021240 331.878845,371.251495 334.596710,369.110016 
	C337.135223,367.109985 338.451324,368.716431 339.899963,370.461578 
	C342.872498,374.042389 345.799927,377.663910 348.870514,381.159241 
	C352.669830,385.484039 356.680023,386.081665 360.663940,383.102081 
	C365.052643,379.819794 366.009033,375.116852 362.990265,370.367859 
	C361.482513,367.995911 359.552582,365.892303 357.585938,363.392609 
z"/>
<path fill="#000000" opacity="1.000000" stroke="none" 
	d="
M399.539093,309.052917 
	C392.285431,308.848267 388.618469,305.272522 388.745209,298.583466 
	C388.855713,292.751465 391.014771,287.554688 394.608704,282.990814 
	C395.830505,281.439240 397.106415,279.624268 399.483185,281.596466 
	C401.545288,283.307526 401.121704,284.830231 399.584442,286.657928 
	C397.645935,288.962708 396.205078,291.609222 395.447327,294.552338 
	C394.795959,297.082153 393.441193,300.092316 396.874115,301.470825 
	C400.043732,302.743561 401.131042,299.797791 402.367493,297.686768 
	C403.375214,295.966248 404.195251,294.136414 405.187439,292.406067 
	C408.090607,287.343079 412.090576,285.484863 416.722961,286.984802 
	C420.651917,288.256989 423.584778,292.881195 423.133667,297.801483 
	C422.687012,302.672882 420.971191,307.180573 417.993896,311.129120 
	C416.811737,312.696899 415.481995,313.966583 413.481140,312.205017 
	C411.873749,310.789856 411.443604,309.312927 412.996460,307.489594 
	C415.089905,305.031586 416.415222,302.173523 416.682983,298.923035 
	C416.848297,296.916260 417.009247,294.706848 414.700317,293.758881 
	C412.218292,292.739868 411.059540,294.768494 409.994324,296.407043 
	C408.638000,298.493286 407.507385,300.726410 406.281494,302.897308 
	C404.776215,305.562927 402.905884,307.845123 399.539093,309.052917 
z"/>
<path fill="#000000" opacity="1.000000" stroke="none" 
	d="
M100.407639,245.497864 
	C91.006775,248.889465 81.976158,252.152313 72.850937,255.449356 
	C70.671967,250.906769 72.076485,248.736038 76.016724,247.394791 
	C82.902954,245.050735 89.712166,242.480408 97.538712,239.648483 
	C90.315254,235.819031 84.077744,232.360992 77.696938,229.191406 
	C74.349571,227.528641 72.748711,225.434631 74.207642,221.655212 
	C76.257095,220.704407 77.713524,222.226654 79.227417,222.985214 
	C86.672722,226.715790 94.061279,230.560501 101.445435,234.411774 
	C103.742027,235.609589 106.383675,236.360901 106.276047,239.956070 
	C106.161865,243.769791 103.486427,244.465668 100.407639,245.497864 
z"/>
<path fill="#000000" opacity="1.000000" stroke="none" 
	d="
M320.775604,123.902969 
	C317.746338,126.836342 315.321045,126.493820 313.154816,123.472473 
	C313.406708,121.433830 315.093781,120.724228 316.320526,119.699982 
	C329.460754,108.728844 342.659973,97.828239 355.780121,86.833260 
	C358.729553,84.361565 361.349915,83.199844 364.292358,87.774399 
	C349.854248,99.760246 335.454346,111.714348 320.775604,123.902969 
z"/>
<path fill="#000000" opacity="1.000000" stroke="none" 
	d="
M317.695068,91.785583 
	C319.684814,87.351097 321.637054,83.310677 323.372498,79.179176 
	C324.443909,76.628441 325.689758,75.393974 328.624390,76.753082 
	C331.366913,78.023247 331.156097,79.626701 330.100586,81.938370 
	C325.204559,92.661011 320.407654,103.429054 315.607178,114.195068 
	C314.588165,116.480347 313.662750,118.396614 310.484955,116.907616 
	C307.444641,115.483017 307.975525,113.609131 309.051392,111.250397 
	C311.945251,104.906036 314.734985,98.514183 317.695068,91.785583 
z"/>
<path fill="#000000" opacity="1.000000" stroke="none" 
	d="
M104.070251,183.053818 
	C94.888138,178.675659 86.050819,174.451782 77.334831,170.285889 
	C78.468544,163.999084 79.294075,163.516266 84.380081,165.963196 
	C95.331406,171.231995 106.249588,176.569855 117.213142,181.812958 
	C119.561264,182.935913 121.272682,184.000427 119.726799,187.052338 
	C118.215385,190.036224 116.321609,188.860489 114.337013,187.920822 
	C111.027779,186.353943 107.722176,184.779404 104.070251,183.053818 
z"/>
<path fill="#000000" opacity="1.000000" stroke="none" 
	d="
M205.841095,76.585159 
	C207.470200,75.705673 208.754852,74.900116 210.467773,75.214333 
	C212.560730,77.980850 213.137726,80.318893 209.174072,82.219749 
	C204.017319,84.692780 203.545883,89.236305 204.727829,94.118454 
	C205.701157,98.138939 207.018158,102.075798 208.164764,106.054932 
	C208.800079,108.259689 209.139679,110.291115 206.114197,111.111595 
	C203.357697,111.859146 202.281036,110.714706 201.575684,108.134361 
	C199.391098,100.142601 196.936523,92.224976 194.692047,84.248947 
	C194.245239,82.661133 192.933578,80.710945 195.492783,79.534401 
	C197.618347,78.557220 199.662598,77.945068 200.817490,80.983292 
	C202.597107,79.393898 204.063248,78.084473 205.841095,76.585159 
z"/>
<path fill="#000000" opacity="1.000000" stroke="none" 
	d="
M299.832794,420.840820 
	C298.666534,419.921265 298.108368,418.056427 296.575836,420.054321 
	C295.224670,421.815704 293.301147,422.855804 291.341949,423.789368 
	C289.653076,424.594086 288.111023,424.695740 287.259430,422.573883 
	C286.584717,420.892731 286.306305,419.117371 288.289307,418.288513 
	C296.176147,414.991821 295.462158,408.907227 293.654755,402.394012 
	C292.766388,399.192657 291.934387,395.975647 291.037628,392.776733 
	C290.344543,390.304535 291.348083,389.121735 293.750763,388.468719 
	C296.242035,387.791626 297.058624,389.037750 297.602600,391.049011 
	C299.899536,399.541199 302.156281,408.045197 304.562866,416.506439 
	C305.795563,420.840454 302.825256,420.676605 299.832794,420.840820 
z"/>
<path fill="#000000" opacity="1.000000" stroke="none" 
	d="
M382.979431,315.906677 
	C380.895172,313.596283 382.274475,311.898987 383.524078,310.405365 
	C384.809509,308.868866 386.260559,310.044281 387.563965,310.664154 
	C395.049591,314.223877 402.513855,317.828705 410.008972,321.368164 
	C412.359985,322.478424 414.000305,323.668365 412.452118,326.661285 
	C410.931763,329.600494 409.058319,328.426514 407.070648,327.476837 
	C399.143646,323.689453 391.209686,319.916504 382.979431,315.906677 
z"/>
<path fill="#000000" opacity="1.000000" stroke="none" 
	d="
M262.214569,401.264435 
	C260.125061,403.576050 257.956909,403.927979 255.769745,402.329437 
	C254.173889,401.163055 253.567749,399.420868 254.359161,397.460358 
	C255.306732,395.113037 257.167572,394.035248 259.542694,394.746033 
	C262.604767,395.662384 263.722198,397.814728 262.214569,401.264435 
z"/>
<path fill="#000000" opacity="1.000000" stroke="none" 
	d="
M236.399628,100.681534 
	C236.323395,97.270279 237.868423,95.719376 240.875900,95.689079 
	C243.237579,95.665276 244.546524,97.079803 244.993469,99.218666 
	C245.465103,101.475624 244.365936,103.211418 242.319153,103.944122 
	C239.570404,104.928116 237.471939,103.971581 236.399628,100.681534 
z"/>
<path fill="#000000" opacity="1.000000" stroke="none" 
	d="
M424.818420,332.394531 
	C422.987946,334.986664 420.971039,335.559509 418.724426,333.734222 
	C417.203339,332.498352 416.520233,330.826416 417.502594,328.886902 
	C418.509827,326.898285 420.163208,325.805664 422.354858,326.481323 
	C425.080444,327.321564 425.620972,329.469666 424.818420,332.394531 
z"/>
</svg>