<svg xmlns="http://www.w3.org/2000/svg" xmlns:xlink="http://www.w3.org/1999/xlink" width="100%" x="0px" y="0px"
	 
 zoomAndPan="magnify" viewBox="0 0 810 809.999993" height="1080" preserveAspectRatio="xMidYMid meet" version="1.0"><defs><g/></defs><g fill="#000000" fill-opacity="1"><g transform="translate(406.838464, 678.442733)"><g><path d="M -51.921875 -11.453125 C -45.234375 -10.234375 -39.238281 -7.90625 -33.9375 -4.46875 C -28.632812 -1.039062 -24.242188 3.207031 -20.765625 8.28125 C -17.285156 13.363281 -14.894531 19.003906 -13.59375 25.203125 C -12.300781 31.410156 -12.265625 37.859375 -13.484375 44.546875 C -14.710938 51.328125 -17.03125 57.414062 -20.4375 62.8125 C -23.84375 68.21875 -28.066406 72.679688 -33.109375 76.203125 C -38.148438 79.734375 -43.753906 82.171875 -49.921875 83.515625 C -56.097656 84.867188 -62.53125 84.9375 -69.21875 83.71875 C -76.613281 82.375 -83.117188 79.617188 -88.734375 75.453125 C -94.347656 71.296875 -98.742188 66.097656 -101.921875 59.859375 C -105.097656 53.628906 -106.726562 46.78125 -106.8125 39.3125 L -87 42.90625 C -86.15625 48.632812 -83.847656 53.476562 -80.078125 57.4375 C -76.304688 61.40625 -71.550781 63.910156 -65.8125 64.953125 C -60.6875 65.878906 -55.84375 65.429688 -51.28125 63.609375 C -46.726562 61.785156 -42.863281 58.914062 -39.6875 55 C -36.519531 51.09375 -34.4375 46.398438 -33.4375 40.921875 C -32.445312 35.453125 -32.753906 30.347656 -34.359375 25.609375 C -35.960938 20.867188 -38.578125 16.863281 -42.203125 13.59375 C -45.835938 10.332031 -50.21875 8.238281 -55.34375 7.3125 C -61.34375 6.21875 -66.820312 6.972656 -71.78125 9.578125 C -76.738281 12.191406 -80.578125 16.257812 -83.296875 21.78125 L -103.25 18.15625 C -100.476562 10.832031 -96.515625 4.722656 -91.359375 -0.171875 C -86.203125 -5.078125 -80.226562 -8.523438 -73.4375 -10.515625 C -66.65625 -12.515625 -59.484375 -12.828125 -51.921875 -11.453125 Z M -51.921875 -11.453125 "/></g></g></g><g fill="#000000" fill-opacity="1"><g transform="translate(316.227021, 662.344046)"><g><path d="M -37.328125 -22.09375 C -30.773438 -18.601562 -25.703125 -14.03125 -22.109375 -8.375 C -18.515625 -2.71875 -16.570312 3.410156 -16.28125 10.015625 C -15.988281 16.628906 -17.523438 23.097656 -20.890625 29.421875 C -24.285156 35.816406 -28.800781 40.738281 -34.4375 44.1875 C -40.082031 47.644531 -46.242188 49.445312 -52.921875 49.59375 C -59.609375 49.75 -66.226562 48.082031 -72.78125 44.59375 C -79.25 41.15625 -84.289062 36.625 -87.90625 31 C -91.53125 25.375 -93.484375 19.257812 -93.765625 12.65625 C -94.054688 6.050781 -92.503906 -0.445312 -89.109375 -6.84375 C -85.742188 -13.164062 -81.242188 -18.054688 -75.609375 -21.515625 C -69.972656 -24.972656 -63.800781 -26.789062 -57.09375 -26.96875 C -50.382812 -27.15625 -43.796875 -25.53125 -37.328125 -22.09375 Z M -45.859375 -6.0625 C -50.773438 -8.675781 -55.640625 -9.210938 -60.453125 -7.671875 C -65.273438 -6.128906 -69.054688 -2.785156 -71.796875 2.359375 C -74.535156 7.503906 -75.191406 12.503906 -73.765625 17.359375 C -72.347656 22.210938 -69.179688 25.945312 -64.265625 28.5625 C -59.273438 31.21875 -54.367188 31.773438 -49.546875 30.234375 C -44.722656 28.703125 -40.941406 25.363281 -38.203125 20.21875 C -35.460938 15.070312 -34.804688 10.066406 -36.234375 5.203125 C -37.660156 0.347656 -40.867188 -3.40625 -45.859375 -6.0625 Z M -45.859375 -6.0625 "/></g></g></g><g fill="#000000" fill-opacity="1"><g transform="translate(247.387001, 627.094217)"><g><path d="M -86.953125 17.796875 C -92.796875 12.140625 -95.523438 5.71875 -95.140625 -1.46875 C -94.765625 -8.65625 -91.410156 -15.519531 -85.078125 -22.0625 L -54.9375 -53.1875 L -41.03125 -39.71875 L -69.046875 -10.78125 C -76.484375 -3.101562 -77.21875 3.617188 -71.25 9.390625 C -67.695312 12.828125 -63.722656 14.34375 -59.328125 13.9375 C -54.929688 13.53125 -50.738281 11.265625 -46.75 7.140625 L -20.5625 -19.90625 L -6.671875 -6.453125 L -56.453125 44.953125 L -65.96875 35.734375 L -62.5625 26.6875 C -66.71875 27.1875 -70.945312 26.675781 -75.25 25.15625 C -79.5625 23.632812 -83.460938 21.179688 -86.953125 17.796875 Z M -86.953125 17.796875 "/></g></g></g><g fill="#000000" fill-opacity="1"><g transform="translate(192.39921, 574.003449)"><g><path d="M -16.421875 -30.65625 C -13.285156 -25.53125 -11.445312 -20.492188 -10.90625 -15.546875 C -10.363281 -10.597656 -11.078125 -6.046875 -13.046875 -1.890625 C -15.015625 2.265625 -18.179688 5.675781 -22.546875 8.34375 L -32.359375 -7.71875 C -29.679688 -9.445312 -28.242188 -11.664062 -28.046875 -14.375 C -27.847656 -17.09375 -28.644531 -19.921875 -30.4375 -22.859375 C -31.863281 -25.191406 -33.613281 -26.914062 -35.6875 -28.03125 C -37.757812 -29.144531 -39.816406 -29.078125 -41.859375 -27.828125 C -43.960938 -26.546875 -44.742188 -24.488281 -44.203125 -21.65625 C -43.671875 -18.832031 -42.679688 -15.632812 -41.234375 -12.0625 C -40.128906 -9.425781 -39.125 -6.597656 -38.21875 -3.578125 C -37.3125 -0.566406 -36.828125 2.421875 -36.765625 5.390625 C -36.710938 8.359375 -37.390625 11.234375 -38.796875 14.015625 C -40.210938 16.796875 -42.726562 19.289062 -46.34375 21.5 C -50.195312 23.851562 -54.222656 24.882812 -58.421875 24.59375 C -62.628906 24.3125 -66.660156 22.84375 -70.515625 20.1875 C -74.367188 17.53125 -77.816406 13.710938 -80.859375 8.734375 C -83.847656 3.835938 -85.609375 -0.953125 -86.140625 -5.640625 C -86.679688 -10.335938 -86.046875 -14.640625 -84.234375 -18.546875 C -82.429688 -22.453125 -79.492188 -25.648438 -75.421875 -28.140625 L -65.8125 -12.421875 C -68.226562 -10.941406 -69.546875 -9.019531 -69.765625 -6.65625 C -69.984375 -4.300781 -69.21875 -1.691406 -67.46875 1.171875 C -65.90625 3.734375 -64.132812 5.394531 -62.15625 6.15625 C -60.1875 6.914062 -58.332031 6.769531 -56.59375 5.71875 C -54.5625 4.46875 -53.863281 2.484375 -54.5 -0.234375 C -55.132812 -2.953125 -56.15625 -6.054688 -57.5625 -9.546875 C -58.625 -12.304688 -59.640625 -15.203125 -60.609375 -18.234375 C -61.578125 -21.265625 -62.113281 -24.300781 -62.21875 -27.34375 C -62.320312 -30.394531 -61.671875 -33.3125 -60.265625 -36.09375 C -58.859375 -38.875 -56.304688 -41.394531 -52.609375 -43.65625 C -48.472656 -46.1875 -44.210938 -47.335938 -39.828125 -47.109375 C -35.441406 -46.890625 -31.226562 -45.375 -27.1875 -42.5625 C -23.144531 -39.75 -19.554688 -35.78125 -16.421875 -30.65625 Z M -16.421875 -30.65625 "/></g></g></g><g fill="#000000" fill-opacity="1"><g transform="translate(159.735338, 520.72185)"><g><path d="M -31.0625 -35.9375 L -33.984375 -44.171875 L -17.75 -49.9375 L -13.1875 -37.09375 C -10.550781 -29.675781 -10.613281 -23.0625 -13.375 -17.25 C -16.144531 -11.445312 -21.269531 -7.21875 -28.75 -4.5625 L -57.46875 5.640625 L -53.125 17.890625 L -57 19.265625 L -94.84375 2.625 L -96.03125 -0.75 L -78.421875 -7 L -85.046875 -25.609375 L -70.4375 -30.8125 L -63.953125 -12.578125 L -37.609375 -21.9375 C -34.359375 -23.09375 -32.15625 -24.878906 -31 -27.296875 C -29.851562 -29.722656 -29.875 -32.601562 -31.0625 -35.9375 Z M -31.0625 -35.9375 "/></g></g></g><g fill="#000000" fill-opacity="1"><g transform="translate(142.332646, 473.028253)"><g><path d="M -78.328125 -33.796875 L -79.34375 -40.078125 L -61.296875 -43 L -59.96875 -34.75 C -59.09375 -29.34375 -57.203125 -25.6875 -54.296875 -23.78125 C -51.398438 -21.882812 -47.078125 -21.398438 -41.328125 -22.328125 L -4.5625 -28.265625 L -1.484375 -9.15625 L -72.140625 2.25 L -74.125 -10.046875 L -66.03125 -14.84375 C -72.8125 -18.664062 -76.910156 -24.984375 -78.328125 -33.796875 Z M -78.328125 -33.796875 "/></g></g></g><g fill="#000000" fill-opacity="1"><g transform="translate(132.416189, 427.476291)"><g><path d="M 4.734375 -41.78125 C 4.296875 -35.09375 2.566406 -29.300781 -0.453125 -24.40625 C -3.472656 -19.519531 -7.476562 -15.84375 -12.46875 -13.375 C -17.457031 -10.90625 -23.171875 -9.882812 -29.609375 -10.3125 L -70.859375 -13.015625 L -69.59375 -32.328125 L -30.59375 -29.765625 C -25.476562 -29.429688 -21.40625 -30.425781 -18.375 -32.75 C -15.34375 -35.070312 -13.679688 -38.476562 -13.390625 -42.96875 C -13.085938 -47.46875 -14.304688 -51.046875 -17.046875 -53.703125 C -19.796875 -56.359375 -23.6875 -57.851562 -28.71875 -58.1875 L -67.71875 -60.75 L -66.453125 -80.0625 L -25.203125 -77.359375 C -18.765625 -76.929688 -13.234375 -75.171875 -8.609375 -72.078125 C -3.984375 -68.992188 -0.492188 -64.847656 1.859375 -59.640625 C 4.210938 -54.441406 5.171875 -48.488281 4.734375 -41.78125 Z M 4.734375 -41.78125 "/></g></g></g><g fill="#000000" fill-opacity="1"><g transform="translate(136.166761, 352.651932)"><g><path d="M 16 -39.46875 C 13.625 -32.71875 9.898438 -27.191406 4.828125 -22.890625 C -0.242188 -18.585938 -6.035156 -15.828125 -12.546875 -14.609375 C -19.066406 -13.390625 -25.703125 -13.96875 -32.453125 -16.34375 C -39.203125 -18.71875 -44.691406 -22.40625 -48.921875 -27.40625 C -53.160156 -32.40625 -55.867188 -38.15625 -57.046875 -44.65625 C -58.222656 -51.164062 -57.609375 -57.835938 -55.203125 -64.671875 C -53.148438 -70.503906 -50.132812 -75.410156 -46.15625 -79.390625 C -42.175781 -83.378906 -37.539062 -86.242188 -32.25 -87.984375 C -26.957031 -89.722656 -21.367188 -90.171875 -15.484375 -89.328125 L -21.859375 -71.203125 C -25.722656 -70.867188 -29.078125 -69.585938 -31.921875 -67.359375 C -34.765625 -65.128906 -36.832031 -62.179688 -38.125 -58.515625 C -39.269531 -55.265625 -39.488281 -52.039062 -38.78125 -48.84375 C -38.082031 -45.644531 -36.625 -42.8125 -34.40625 -40.34375 C -32.1875 -37.875 -29.328125 -36.023438 -25.828125 -34.796875 C -22.328125 -33.566406 -18.914062 -33.207031 -15.59375 -33.71875 C -12.269531 -34.238281 -9.3125 -35.519531 -6.71875 -37.5625 C -4.132812 -39.601562 -2.269531 -42.25 -1.125 -45.5 C 0.195312 -49.25 0.367188 -52.863281 -0.609375 -56.34375 C -1.585938 -59.820312 -3.628906 -63 -6.734375 -65.875 L -0.265625 -84.25 C 5.015625 -81.164062 9.226562 -77.242188 12.375 -72.484375 C 15.519531 -67.722656 17.429688 -62.507812 18.109375 -56.84375 C 18.785156 -51.175781 18.082031 -45.382812 16 -39.46875 Z M 16 -39.46875 "/></g></g></g><g fill="#000000" fill-opacity="1"><g transform="translate(161.610547, 282.120163)"><g><path d="M 9.25 -46.59375 L 13.953125 -53.96875 L 28.484375 -44.703125 L 21.140625 -33.1875 C 16.921875 -26.5625 11.671875 -22.550781 5.390625 -21.15625 C -0.890625 -19.769531 -7.382812 -21.210938 -14.09375 -25.484375 L -39.78125 -41.84375 L -46.765625 -30.890625 L -50.234375 -33.109375 L -60.375 -73.171875 L -58.453125 -76.203125 L -42.703125 -66.171875 L -32.09375 -82.828125 L -19 -74.484375 L -29.390625 -58.171875 L -5.8125 -43.15625 C -2.90625 -41.300781 -0.144531 -40.664062 2.46875 -41.25 C 5.09375 -41.832031 7.351562 -43.613281 9.25 -46.59375 Z M 9.25 -46.59375 "/></g></g></g><g fill="#000000" fill-opacity="1"><g transform="translate(189.596559, 238.792859)"><g><path d="M -54.6875 -60.59375 L -68.21875 -72.515625 L -55.4375 -87.015625 L -41.90625 -75.09375 Z M 6.140625 -6.96875 L -47.546875 -54.296875 L -34.765625 -68.796875 L 18.921875 -21.46875 Z M 6.140625 -6.96875 "/></g></g></g><g fill="#000000" fill-opacity="1"><g transform="translate(207.891672, 213.257968)"><g><path d="M 35.828125 -24.4375 C 29.890625 -19.976562 23.59375 -17.320312 16.9375 -16.46875 C 10.289062 -15.613281 3.914062 -16.453125 -2.1875 -18.984375 C -8.289062 -21.523438 -13.492188 -25.65625 -17.796875 -31.375 C -22.148438 -37.164062 -24.695312 -43.34375 -25.4375 -49.90625 C -26.175781 -56.476562 -25.195312 -62.820312 -22.5 -68.9375 C -19.800781 -75.0625 -15.484375 -80.351562 -9.546875 -84.8125 C -3.691406 -89.21875 2.546875 -91.863281 9.171875 -92.75 C 15.804688 -93.644531 22.171875 -92.820312 28.265625 -90.28125 C 34.367188 -87.75 39.597656 -83.585938 43.953125 -77.796875 C 48.253906 -72.078125 50.773438 -65.929688 51.515625 -59.359375 C 52.265625 -52.796875 51.300781 -46.4375 48.625 -40.28125 C 45.945312 -34.125 41.679688 -28.84375 35.828125 -24.4375 Z M 24.921875 -38.953125 C 29.367188 -42.304688 31.914062 -46.488281 32.5625 -51.5 C 33.21875 -56.519531 31.789062 -61.359375 28.28125 -66.015625 C 24.78125 -70.679688 20.53125 -73.398438 15.53125 -74.171875 C 10.53125 -74.953125 5.804688 -73.664062 1.359375 -70.3125 C -3.160156 -66.925781 -5.742188 -62.722656 -6.390625 -57.703125 C -7.035156 -52.679688 -5.609375 -47.835938 -2.109375 -43.171875 C 1.398438 -38.515625 5.648438 -35.800781 10.640625 -35.03125 C 15.640625 -34.257812 20.398438 -35.566406 24.921875 -38.953125 Z M 24.921875 -38.953125 "/></g></g></g><g fill="#000000" fill-opacity="1"><g transform="translate(268.992995, 165.841395)"><g><path d="M 20.734375 -86.3125 C 28.328125 -89.207031 35.296875 -88.957031 41.640625 -85.5625 C 47.992188 -82.164062 52.789062 -76.210938 56.03125 -67.703125 L 71.453125 -27.21875 L 53.375 -20.328125 L 39.03125 -57.96875 C 35.226562 -67.957031 29.445312 -71.472656 21.6875 -68.515625 C 17.0625 -66.753906 14.003906 -63.796875 12.515625 -59.640625 C 11.023438 -55.484375 11.300781 -50.722656 13.34375 -45.359375 L 26.75 -10.1875 L 8.671875 -3.296875 L -16.796875 -70.171875 L -4.40625 -74.890625 L 2.328125 -67.96875 C 3.640625 -71.957031 5.898438 -75.578125 9.109375 -78.828125 C 12.316406 -82.085938 16.191406 -84.582031 20.734375 -86.3125 Z M 20.734375 -86.3125 "/></g></g></g><g fill="#000000" fill-opacity="1"><g transform="translate(342.751318, 139.781846)"><g/></g></g><g fill="#000000" fill-opacity="1"><g transform="translate(370.085402, 134.65411)"><g><path d="M 7.9375 -0.484375 L 6.65625 -21.109375 L 27.140625 -22.390625 L 28.421875 -1.765625 Z M 7.9375 -0.484375 "/></g></g></g><g fill="#000000" fill-opacity="1"><g transform="translate(402.450173, 132.563916)"><g/></g></g><g fill="#000000" fill-opacity="1"><g transform="translate(428.110646, 130.908998)"><g><path d="M 39.765625 11.453125 C 32.898438 9.804688 27.144531 7.109375 22.5 3.359375 C 17.851562 -0.390625 14.601562 -4.9375 12.75 -10.28125 C 10.90625 -15.632812 10.753906 -21.535156 12.296875 -27.984375 L 32.015625 -23.25 C 30.960938 -18.875 31.707031 -15.265625 34.25 -12.421875 C 36.789062 -9.585938 40.039062 -7.691406 44 -6.734375 C 46.488281 -6.140625 48.925781 -5.988281 51.3125 -6.28125 C 53.695312 -6.570312 55.789062 -7.34375 57.59375 -8.59375 C 59.394531 -9.84375 60.566406 -11.585938 61.109375 -13.828125 C 61.660156 -16.148438 61.28125 -18.164062 59.96875 -19.875 C 58.65625 -21.59375 56.726562 -23.210938 54.1875 -24.734375 C 51.644531 -26.265625 48.832031 -27.804688 45.75 -29.359375 C 42.59375 -30.941406 39.382812 -32.707031 36.125 -34.65625 C 32.863281 -36.613281 29.953125 -38.878906 27.390625 -41.453125 C 24.828125 -44.023438 23.019531 -47.09375 21.96875 -50.65625 C 20.925781 -54.226562 20.984375 -58.421875 22.140625 -63.234375 C 24.222656 -71.921875 28.765625 -77.894531 35.765625 -81.15625 C 42.765625 -84.425781 51.296875 -84.851562 61.359375 -82.4375 C 71.648438 -79.96875 79.007812 -75.453125 83.4375 -68.890625 C 87.875 -62.335938 89.019531 -54.597656 86.875 -45.671875 L 67.546875 -50.296875 C 68.472656 -54.148438 67.78125 -57.332031 65.46875 -59.84375 C 63.164062 -62.351562 60.207031 -64.039062 56.59375 -64.90625 C 53.414062 -65.664062 50.332031 -65.679688 47.34375 -64.953125 C 44.351562 -64.222656 42.503906 -62.394531 41.796875 -59.46875 C 41.285156 -57.3125 41.671875 -55.421875 42.953125 -53.796875 C 44.242188 -52.171875 46.101562 -50.632812 48.53125 -49.1875 C 50.957031 -47.75 53.664062 -46.265625 56.65625 -44.734375 C 59.882812 -43.046875 63.164062 -41.1875 66.5 -39.15625 C 69.832031 -37.132812 72.804688 -34.765625 75.421875 -32.046875 C 78.035156 -29.328125 79.914062 -26.101562 81.0625 -22.375 C 82.21875 -18.644531 82.195312 -14.289062 81 -9.3125 C 79.4375 -2.78125 76.570312 2.253906 72.40625 5.796875 C 68.238281 9.335938 63.320312 11.539062 57.65625 12.40625 C 52 13.28125 46.035156 12.960938 39.765625 11.453125 Z M 39.765625 11.453125 "/></g></g></g><g fill="#000000" fill-opacity="1"><g transform="translate(499.409112, 145.978419)"><g><path d="M 94.359375 -28.625 L 106.890625 -21.453125 L 71.375 40.671875 L 58.15625 33.109375 L 59.9375 26.78125 C 55.9375 27.550781 51.851562 27.609375 47.6875 26.953125 C 43.53125 26.304688 39.5 24.867188 35.59375 22.640625 C 29.382812 19.085938 24.644531 14.46875 21.375 8.78125 C 18.113281 3.101562 16.476562 -3.019531 16.46875 -9.59375 C 16.46875 -16.164062 18.265625 -22.59375 21.859375 -28.875 C 25.410156 -35.082031 30.015625 -39.847656 35.671875 -43.171875 C 41.335938 -46.492188 47.4375 -48.171875 53.96875 -48.203125 C 60.507812 -48.234375 66.882812 -46.472656 73.09375 -42.921875 C 77.082031 -40.640625 80.414062 -37.84375 83.09375 -34.53125 C 85.769531 -31.21875 87.773438 -27.601562 89.109375 -23.6875 Z M 46.0625 7.5625 C 49.28125 9.40625 52.585938 10.332031 55.984375 10.34375 C 59.390625 10.351562 62.550781 9.488281 65.46875 7.75 C 68.394531 6.007812 70.800781 3.492188 72.6875 0.203125 C 74.53125 -3.023438 75.457031 -6.335938 75.46875 -9.734375 C 75.488281 -13.140625 74.640625 -16.320312 72.921875 -19.28125 C 71.210938 -22.25 68.75 -24.65625 65.53125 -26.5 C 62.226562 -28.382812 58.882812 -29.300781 55.5 -29.25 C 52.113281 -29.207031 48.957031 -28.316406 46.03125 -26.578125 C 43.101562 -24.847656 40.71875 -22.367188 38.875 -19.140625 C 36.988281 -15.847656 36.050781 -12.519531 36.0625 -9.15625 C 36.070312 -5.789062 36.914062 -2.632812 38.59375 0.3125 C 40.269531 3.257812 42.757812 5.675781 46.0625 7.5625 Z M 46.0625 7.5625 "/></g></g></g><g fill="#000000" fill-opacity="1"><g transform="translate(571.297592, 189.451448)"><g><path d="M 6.90625 6.203125 L 71.953125 -66.3125 L 86.359375 -53.40625 L 21.3125 19.109375 Z M 6.90625 6.203125 "/></g></g></g><g fill="#000000" fill-opacity="1"><g transform="translate(596.606335, 208.252215)"><g><path d="M 75.96875 41.515625 C 74.488281 42.617188 72.890625 43.644531 71.171875 44.59375 L 38.828125 1.28125 C 35.410156 4.8125 33.578125 8.597656 33.328125 12.640625 C 33.085938 16.679688 34.375 20.582031 37.1875 24.34375 C 39.1875 27.03125 41.566406 29 44.328125 30.25 C 47.085938 31.5 49.914062 31.921875 52.8125 31.515625 L 65.015625 47.859375 C 57.203125 50.390625 49.550781 50.476562 42.0625 48.125 C 34.582031 45.78125 28.359375 41.285156 23.390625 34.640625 C 19.148438 28.972656 16.679688 22.898438 15.984375 16.421875 C 15.285156 9.941406 16.253906 3.707031 18.890625 -2.28125 C 21.523438 -8.269531 25.710938 -13.40625 31.453125 -17.6875 C 37.179688 -21.96875 43.289062 -24.519531 49.78125 -25.34375 C 56.28125 -26.175781 62.53125 -25.332031 68.53125 -22.8125 C 74.539062 -20.300781 79.664062 -16.210938 83.90625 -10.546875 C 88.28125 -4.679688 90.769531 1.492188 91.375 7.984375 C 91.988281 14.484375 90.953125 20.664062 88.265625 26.53125 C 85.585938 32.394531 81.488281 37.390625 75.96875 41.515625 Z M 70.75 -0.71875 C 68.15625 -4.1875 65.015625 -6.394531 61.328125 -7.34375 C 57.648438 -8.289062 53.789062 -7.914062 49.75 -6.21875 L 70.4375 21.484375 C 75.976562 13.828125 76.082031 6.425781 70.75 -0.71875 Z M 70.75 -0.71875 "/></g></g></g><g fill="#000000" fill-opacity="1"><g transform="translate(640.980615, 270.70104)"><g/></g></g><g fill="#000000" fill-opacity="1"><g transform="translate(654.983566, 292.119462)"><g><path d="M 22.0625 82.4375 L 16.671875 62.34375 C 18.109375 60.132812 19.476562 58.070312 20.78125 56.15625 C 17.65625 53.34375 14.941406 50.046875 12.640625 46.265625 C 10.347656 42.492188 8.578125 38.257812 7.328125 33.5625 C 5.835938 28.007812 5.59375 22.835938 6.59375 18.046875 C 7.601562 13.265625 9.71875 9.179688 12.9375 5.796875 C 16.15625 2.410156 20.320312 0.0351562 25.4375 -1.328125 C 31.75 -3.015625 37.3125 -2.804688 42.125 -0.703125 C 46.945312 1.390625 51.320312 4.144531 55.25 7.5625 C 59.207031 2.863281 62.535156 -0.414062 65.234375 -2.28125 C 67.941406 -4.15625 70.53125 -5.425781 73 -6.09375 C 79.476562 -7.820312 85.28125 -6.878906 90.40625 -3.265625 C 95.539062 0.335938 99.125 5.9375 101.15625 13.53125 C 103.164062 21.039062 102.835938 27.597656 100.171875 33.203125 C 97.503906 38.816406 92.972656 42.476562 86.578125 44.1875 C 82.566406 45.257812 78.859375 45.242188 75.453125 44.140625 C 72.054688 43.035156 68.851562 41.304688 65.84375 38.953125 C 62.84375 36.609375 59.953125 34.023438 57.171875 31.203125 C 55.222656 33.828125 53.15625 36.691406 50.96875 39.796875 C 48.789062 42.898438 46.515625 46.179688 44.140625 49.640625 C 48.710938 50.617188 53.570312 50.644531 58.71875 49.71875 L 62.921875 65.46875 C 57.734375 66.582031 52.707031 67.03125 47.84375 66.8125 C 42.988281 66.601562 38.484375 65.734375 34.328125 64.203125 C 32.410156 67.003906 30.421875 69.9375 28.359375 73 C 26.304688 76.070312 24.207031 79.21875 22.0625 82.4375 Z M 87.59375 17.171875 C 86.882812 14.523438 85.59375 12.601562 83.71875 11.40625 C 81.84375 10.21875 79.710938 9.945312 77.328125 10.59375 C 74.671875 11.300781 71.09375 14.175781 66.59375 19.21875 C 69.363281 22.050781 71.992188 24.363281 74.484375 26.15625 C 76.984375 27.957031 79.515625 28.515625 82.078125 27.828125 C 84.378906 27.210938 86.046875 25.921875 87.078125 23.953125 C 88.109375 21.992188 88.28125 19.734375 87.59375 17.171875 Z M 23.9375 31.03125 C 25.101562 35.394531 27.148438 39.109375 30.078125 42.171875 C 36.035156 33.335938 41.160156 26.019531 45.453125 20.21875 C 43.066406 18.46875 40.679688 17.15625 38.296875 16.28125 C 35.921875 15.414062 33.410156 15.335938 30.765625 16.046875 C 27.703125 16.867188 25.550781 18.65625 24.3125 21.40625 C 23.082031 24.164062 22.957031 27.375 23.9375 31.03125 Z M 23.9375 31.03125 "/></g></g></g><g fill="#000000" fill-opacity="1"><g transform="translate(673.475176, 368.774407)"><g/></g></g><g fill="#000000" fill-opacity="1"><g transform="translate(675.927883, 396.20511)"><g><path d="M -0.53125 10.578125 L 92.125 15.21875 L 91.125 35.359375 L -1.53125 30.71875 Z M -0.53125 10.578125 "/></g></g></g><g fill="#000000" fill-opacity="1"><g transform="translate(677.160959, 430.892264)"><g><path d="M 58.15625 67.0625 C 56.09375 74.914062 51.832031 80.441406 45.375 83.640625 C 38.914062 86.835938 31.285156 87.28125 22.484375 84.96875 L -19.421875 73.96875 L -14.5 55.234375 L 24.46875 65.46875 C 34.800781 68.175781 41.019531 65.515625 43.125 57.484375 C 44.382812 52.703125 43.753906 48.5 41.234375 44.875 C 38.722656 41.25 34.691406 38.707031 29.140625 37.25 L -7.265625 27.6875 L -2.359375 8.984375 L 66.859375 27.15625 L 63.5 39.96875 L 53.9375 41.4375 C 56.414062 44.8125 58.046875 48.75 58.828125 53.25 C 59.617188 57.75 59.394531 62.351562 58.15625 67.0625 Z M 58.15625 67.0625 "/></g></g></g><g fill="#000000" fill-opacity="1"><g transform="translate(658.488725, 504.684616)"><g><path d="M 33.984375 84.390625 L 23.9375 101.84375 L -23.875 41.46875 L -14.9375 25.953125 L 61.5625 36.5 L 51.296875 54.3125 L 0.953125 45.640625 Z M 33.984375 84.390625 "/></g></g></g><g fill="#000000" fill-opacity="1"><g transform="translate(625.504271, 565.034814)"><g><path d="M -30.171875 81.15625 C -31.472656 79.84375 -32.71875 78.398438 -33.90625 76.828125 L 4.3125 38.609375 C 0.320312 35.734375 -3.6875 34.460938 -7.71875 34.796875 C -11.75 35.140625 -15.421875 36.972656 -18.734375 40.296875 C -21.109375 42.660156 -22.71875 45.296875 -23.5625 48.203125 C -24.40625 51.109375 -24.421875 53.96875 -23.609375 56.78125 L -38.03125 71.203125 C -41.65625 63.847656 -42.84375 56.296875 -41.59375 48.546875 C -40.351562 40.796875 -36.796875 33.988281 -30.921875 28.125 C -25.921875 23.113281 -20.265625 19.796875 -13.953125 18.171875 C -7.648438 16.554688 -1.34375 16.617188 4.96875 18.359375 C 11.28125 20.109375 16.960938 23.515625 22.015625 28.578125 C 27.078125 33.640625 30.484375 39.320312 32.234375 45.625 C 33.984375 51.9375 34.046875 58.242188 32.421875 64.546875 C 30.804688 70.859375 27.5 76.519531 22.5 81.53125 C 17.320312 86.707031 11.5625 90.0625 5.21875 91.59375 C -1.125 93.125 -7.390625 92.984375 -13.578125 91.171875 C -19.765625 89.359375 -25.296875 86.019531 -30.171875 81.15625 Z M 10.875 69.90625 C 13.9375 66.832031 15.671875 63.40625 16.078125 59.625 C 16.484375 55.851562 15.5625 52.097656 13.3125 48.359375 L -11.140625 72.8125 C -2.765625 77.175781 4.570312 76.207031 10.875 69.90625 Z M 10.875 69.90625 "/></g></g></g><g fill="#000000" fill-opacity="1"><g transform="translate(572.752596, 618.080166)"><g><path d="M -30.875 16.015625 C -25.707031 12.941406 -20.644531 11.164062 -15.6875 10.6875 C -10.726562 10.21875 -6.1875 10.992188 -2.0625 13.015625 C 2.0625 15.046875 5.429688 18.265625 8.046875 22.671875 L -8.140625 32.265625 C -9.847656 29.554688 -12.050781 28.082031 -14.75 27.84375 C -17.457031 27.613281 -20.289062 28.375 -23.25 30.125 C -25.601562 31.519531 -27.347656 33.25 -28.484375 35.3125 C -29.628906 37.375 -29.597656 39.429688 -28.390625 41.484375 C -27.128906 43.609375 -25.078125 44.421875 -22.234375 43.921875 C -19.398438 43.429688 -16.191406 42.476562 -12.609375 41.0625 C -9.953125 40 -7.109375 39.035156 -4.078125 38.171875 C -1.054688 37.304688 1.9375 36.863281 4.90625 36.84375 C 7.875 36.832031 10.738281 37.546875 13.5 38.984375 C 16.257812 40.421875 18.71875 42.960938 20.875 46.609375 C 23.175781 50.492188 24.160156 54.535156 23.828125 58.734375 C 23.492188 62.941406 21.972656 66.953125 19.265625 70.765625 C 16.554688 74.585938 12.691406 77.988281 7.671875 80.96875 C 2.734375 83.894531 -2.082031 85.597656 -6.78125 86.078125 C -11.488281 86.554688 -15.78125 85.863281 -19.65625 84 C -23.539062 82.132812 -26.695312 79.148438 -29.125 75.046875 L -13.28125 65.65625 C -11.84375 68.09375 -9.941406 69.429688 -7.578125 69.671875 C -5.222656 69.921875 -2.601562 69.1875 0.28125 67.46875 C 2.863281 65.9375 4.550781 64.191406 5.34375 62.234375 C 6.132812 60.273438 6.015625 58.425781 4.984375 56.6875 C 3.765625 54.632812 1.789062 53.898438 -0.9375 54.484375 C -3.675781 55.078125 -6.800781 56.054688 -10.3125 57.421875 C -13.082031 58.453125 -15.988281 59.429688 -19.03125 60.359375 C -22.082031 61.296875 -25.128906 61.796875 -28.171875 61.859375 C -31.222656 61.921875 -34.125 61.226562 -36.875 59.78125 C -39.632812 58.34375 -42.125 55.757812 -44.34375 52.03125 C -46.8125 47.851562 -47.90625 43.570312 -47.625 39.1875 C -47.34375 34.800781 -45.769531 30.609375 -42.90625 26.609375 C -40.050781 22.609375 -36.039062 19.078125 -30.875 16.015625 Z M -30.875 16.015625 "/></g></g></g><g fill="#000000" fill-opacity="1"><g transform="translate(519.044007, 650.037675)"><g><path d="M -36.34375 30.578125 L -44.609375 33.40625 L -50.171875 17.09375 L -37.25 12.6875 C -29.8125 10.15625 -23.203125 10.304688 -17.421875 13.140625 C -11.648438 15.984375 -7.484375 21.171875 -4.921875 28.703125 L 4.90625 57.53125 L 17.203125 53.34375 L 18.515625 57.234375 L 1.375 94.859375 L -2.015625 96.015625 L -8.03125 78.328125 L -26.71875 84.703125 L -31.71875 70.015625 L -13.40625 63.765625 L -22.421875 37.3125 C -23.535156 34.050781 -25.296875 31.828125 -27.703125 30.640625 C -30.109375 29.460938 -32.988281 29.441406 -36.34375 30.578125 Z M -36.34375 30.578125 "/></g></g></g><g fill="#000000" fill-opacity="1"><g transform="translate(469.726165, 666.254697)"><g/></g></g><g fill="#000000" fill-opacity="1"><g transform="translate(442.455065, 671.659558)"><g><path d="M -7.9375 0.578125 L -6.453125 21.203125 L -26.921875 22.671875 L -28.40625 2.046875 Z M -7.9375 0.578125 "/></g></g></g></svg>